<svg version="1.2" xmlns="http://www.w3.org/2000/svg" viewBox="0 0 1440 584" width="1440" height="584">
	<title>blockchain-commodities-bg-02-svg</title>
	<defs>
		<radialGradient id="g1" cx="737" cy="708.3" r="601.2" gradientUnits="userSpaceOnUse">
			<stop offset=".4" stop-color="#000000"/>
			<stop offset=".4" stop-color="#040405"/>
			<stop offset=".5" stop-color="#0f1112"/>
			<stop offset=".5" stop-color="#222729"/>
			<stop offset=".5" stop-color="#18327a"/>
			<stop offset=".6" stop-color="#193689"/>
			<stop offset=".6" stop-color="#143186"/>
			<stop offset=".7" stop-color="#163aa0"/>
			<stop offset="1" stop-color="#000000"/>
		</radialGradient>
		<radialGradient id="g2" cx="737" cy="737.4" r="539" gradientUnits="userSpaceOnUse">
			<stop offset="0" stop-color="#000000"/>
			<stop offset=".7" stop-color="#030303"/>
			<stop offset=".8" stop-color="#050505"/>
			<stop offset=".9" stop-color="#0a0c0d"/>
			<stop offset=".9" stop-color="#091023"/>
			<stop offset="1" stop-color="#121c37"/>
			<stop offset="1" stop-color="#182856"/>
			<stop offset="1" stop-color="#14275c"/>
		</radialGradient>
		<filter x="-50%" y="-50%" width="200%" height="200%" id="f1"> <feGaussianBlur stdDeviation="12"/> </filter>
		<filter x="-50%" y="-50%" width="200%" height="200%" id="f2"> <feGaussianBlur stdDeviation="50"/> </filter>
	</defs>
	<style>
		.s0 { opacity: .8;fill: url(#g1) } 
		.s1 { fill: url(#g2) } 
		.s2 { fill: #56c5ff } 
		.s3 { opacity: .7;filter: url(#f1);fill: #000000 } 
		.s4 { filter: url(#f2);fill: #000000 } 
	</style>
	<path id="Layer" class="s0" d="m150 578c59.5-269.6 299.8-471 587-471 287.3 0 527.3 201.4 587 471z"/>
	<path id="Layer" class="s1" d="m222.1 577.6c68.2-219.7 272.9-379.2 514.9-379.2 242 0 446.7 159.5 514.9 379.2z"/>
	<circle id="Layer" class="s2" cx="348.1" cy="482.8" r="1.5"/>
	<circle id="Layer" class="s2" cx="363.1" cy="438.8" r="1.5"/>
	<circle id="Layer" class="s2" cx="322.2" cy="585.9" r="1.5"/>
	<circle id="Layer" class="s2" cx="378.8" cy="400.2" r="1.5"/>
	<circle id="Layer" class="s2" cx="334.2" cy="531.9" r="1.5"/>
	<path id="Layer" class="s2" d="m561.1 207.5c-0.2 0-0.2 0-0.4 0 0.2 0.2 0.4 0.5 0.4 0.9 0 0.7-0.7 1.5-1.5 1.5-0.5 0-1.1-0.4-1.3-0.9-0.1 0.1-0.3 0.3-0.7 0.3-0.7 0-1.5-0.7-1.5-1.4 0-0.8 0.8-1.5 1.5-1.5 0.6 0 1.1 0.3 1.3 0.9 0.2-0.2 0.4-0.4 0.7-0.4 0.2 0 0.2 0 0.4 0-0.2-0.2-0.4-0.5-0.4-0.9 0-0.7 0.8-1.5 1.5-1.5 0.8 0 1.5 0.6 1.5 1.3 0.4-0.4 0.7-0.7 1.3-0.7 0.7 0 1.5 0.7 1.5 1.5 0 0.7-0.8 1.4-1.5 1.4-0.8 0-1.5-0.5-1.5-1.3-0.2 0.4-0.7 0.8-1.3 0.8z"/>
	<circle id="Layer" class="s2" cx="456.4" cy="274.4" r="1.5"/>
	<circle id="Layer" class="s2" cx="394.8" cy="366.6" r="1.5"/>
	<circle id="Layer" class="s2" cx="441.8" cy="291.9" r="1.5"/>
	<circle id="Layer" class="s2" cx="470.2" cy="260.1" r="1.5"/>
	<circle id="Layer" class="s2" cx="426.6" cy="312.8" r="1.5"/>
	<circle id="Layer" class="s2" cx="410.9" cy="337.6" r="1.5"/>
	<circle id="Layer" class="s2" cx="363.2" cy="324.8" r="1.5"/>
	<path id="Layer" class="s2" d="m527.1 218.8c0-0.2 0-0.4 0.2-0.6-0.2-0.2-0.2-0.6-0.2-0.7 0-0.8 0.8-1.5 1.5-1.5 0.7 0 1.5 0.7 1.5 1.5 0 0.1 0 0.3-0.2 0.5 0.2 0.2 0.2 0.6 0.2 0.8 0 0.7-0.8 1.4-1.5 1.4-0.9 0-1.5-0.7-1.5-1.4z"/>
	<circle id="Layer" class="s2" cx="507.5" cy="230.8" r="1.5"/>
	<path id="Layer" class="s2" d="m545 211.9c0-0.4 0-0.5 0.2-0.7-0.2 0.2-0.3 0.2-0.5 0.2-0.6 0-1.1-0.4-1.3-1h2.7l-0.1 0.2c0.1-0.2 0.3-0.2 0.5-0.2 0.8 0 1.3 0.6 1.5 1.3h0.2c0.7 0 1.5 0.8 1.5 1.5 0 0.7-0.8 1.5-1.5 1.5-0.8 0-1.3-0.6-1.5-1.3h-0.2c-0.7 0-1.5-0.7-1.5-1.5z"/>
	<circle id="Layer" class="s2" cx="495.9" cy="238.7" r="1.5"/>
	<circle id="Layer" class="s2" cx="366.9" cy="574" r="1.5"/>
	<circle id="Layer" class="s2" cx="574.6" cy="203" r="1.5"/>
	<path id="Layer" class="s2" d="m540.6 217.6c0 0.8-0.7 1.5-1.5 1.5-0.7 0-1.5-0.7-1.5-1.5 0-0.3 0-0.5 0.2-0.7-0.7 0-1.3-0.5-1.3-1.3-0.3-0.4-0.7-0.7-0.7-1.3 0-0.7 0.7-1.5 1.5-1.5 0.7 0 1.5 0.6 1.5 1.3 0.3 0.4 0.7 0.8 0.7 1.3 0 0.4 0 0.6-0.2 0.8 0.7 0.2 1.5 0.7 1.3 1.4z"/>
	<circle id="Layer" class="s2" cx="529.9" cy="226.3" r="1.5"/>
	<circle id="Layer" class="s2" cx="437.9" cy="349.6" r="1.5"/>
	<circle id="Layer" class="s2" cx="392.8" cy="467.1" r="1.5"/>
	<circle id="Layer" class="s2" cx="422.7" cy="383.2" r="1.5"/>
	<circle id="Layer" class="s2" cx="407.6" cy="422.4" r="1.5"/>
	<circle id="Layer" class="s2" cx="379.1" cy="517.7" r="1.5"/>
	<circle id="Layer" class="s2" cx="494.4" cy="259.8" r="1.5"/>
	<circle id="Layer" class="s2" cx="452.7" cy="320.9" r="1.5"/>
	<circle id="Layer" class="s2" cx="507" cy="246.1" r="1.5"/>
	<circle id="Layer" class="s2" cx="518.8" cy="235" r="1.5"/>
	<circle id="Layer" class="s2" cx="467.3" cy="296.7" r="1.5"/>
	<circle id="Layer" class="s2" cx="481.1" cy="276.4" r="1.5"/>
	<circle id="Layer" class="s2" cx="406.3" cy="291.5" r="1.5"/>
	<path id="Layer" class="s2" d="m446.7 255.5v-0.2c-0.1-0.1-0.3-0.5-0.3-0.9 0-0.2 0-0.2 0-0.2 0-0.2-0.2-0.3-0.2-0.7 0-0.2 0-0.2 0-0.4-0.4-0.4-0.7-0.7-0.7-1.3 0-0.7 0.7-1.5 1.4-1.5 0.8 0 1.5 0.8 1.5 1.5 0 0.2 0 0.2 0 0.4 0.4 0.4 0.7 0.7 0.7 1.3v0.2c0 0.2 0.2 0.3 0.2 0.7v0.2c0.2 0.2 0.4 0.6 0.4 0.9 0 0.8-0.7 1.5-1.5 1.5-0.7 0-1.5-0.7-1.5-1.5z"/>
	<circle id="Layer" class="s2" cx="421.2" cy="278.2" r="1.5"/>
	<path id="Layer" class="s2" d="m511.8 221c0.7 0 1.5 0.7 1.5 1.4 0 0.8-0.4 1.3-1.2 1.5 0.2 0.2 0.2 0.4 0.2 0.6 0 0.7-0.7 1.5-1.4 1.5-0.8 0-1.5-0.8-1.5-1.5 0-0.8 0.3-1.3 1.1-1.5-0.2-0.2-0.2-0.4-0.2-0.6 0-0.9 0.7-1.4 1.5-1.4z"/>
	<path id="Layer" class="s2" d="m500.1 228.9c-0.1 0-0.5-0.2-0.7-0.4 0.2 0.2 0.4 0.6 0.4 1 0 0.7-0.8 1.4-1.5 1.4-0.6 0-1.1-0.5-1.3-1.1 0 1-0.7 1.5-1.5 1.5-0.5 0-1.1-0.4-1.3-0.9-0.2 0.4-0.5 0.7-1.1 0.7-0.7 0-1.5-0.7-1.5-1.4 0-0.8 0.8-1.5 1.5-1.5 0.6 0 1.1 0.3 1.3 0.9 0.2-0.4 0.6-0.7 1.1-0.7 0.6 0 1.1 0.5 1.3 1.1 0-1 0.8-1.5 1.5-1.5 0.2 0 0.5 0.2 0.7 0.4-0.2-0.2-0.3-0.6-0.3-1 0-0.7 0.7-1.4 1.4-1.4 0.8 0 1.5 0.7 1.5 1.4 0 0.8-0.7 1.5-1.5 1.5z"/>
	<circle id="Layer" class="s2" cx="264.8" cy="559.3" r="1.5"/>
	<circle id="Layer" class="s2" cx="277.9" cy="513.8" r="1.5"/>
	<circle id="Layer" class="s2" cx="292.5" cy="472.4" r="1.5"/>
	<circle id="Layer" class="s2" cx="358.2" cy="347.9" r="1.5"/>
	<circle id="Layer" class="s2" cx="374.7" cy="326.1" r="1.5"/>
	<circle id="Layer" class="s2" cx="390.8" cy="307.4" r="1.5"/>
	<circle id="Layer" class="s2" cx="308.2" cy="435.3" r="1.5"/>
	<circle id="Layer" class="s2" cx="324.8" cy="402.2" r="1.5"/>
	<circle id="Layer" class="s2" cx="341.4" cy="373.2" r="1.5"/>
	<circle id="Layer" class="s2" cx="265.5" cy="488.9" r="1.5"/>
	<circle id="Layer" class="s2" cx="251.3" cy="528.6" r="1.5"/>
	<circle id="Layer" class="s2" cx="280.8" cy="452.7" r="1.5"/>
	<circle id="Layer" class="s2" cx="346.8" cy="344" r="1.5"/>
	<circle id="Layer" class="s2" cx="330.2" cy="366" r="1.5"/>
	<circle id="Layer" class="s2" cx="296.9" cy="420.3" r="1.5"/>
	<circle id="Layer" class="s2" cx="313.5" cy="391.5" r="1.5"/>
	<circle id="Layer" class="s2" cx="238.9" cy="572" r="1.5"/>
	<circle id="Layer" class="s2" cx="373.8" cy="355.1" r="1.5"/>
	<circle id="Layer" class="s2" cx="340.9" cy="417.7" r="1.5"/>
	<circle id="Layer" class="s2" cx="357.3" cy="384.3" r="1.5"/>
	<circle id="Layer" class="s2" cx="324.8" cy="455.8" r="1.5"/>
	<circle id="Layer" class="s2" cx="309.8" cy="498.5" r="1.5"/>
	<circle id="Layer" class="s2" cx="296.4" cy="545.8" r="1.5"/>
	<circle id="Layer" class="s2" cx="421.8" cy="290.4" r="1.5"/>
	<circle id="Layer" class="s2" cx="436.8" cy="275.3" r="1.5"/>
	<circle id="Layer" class="s2" cx="451" cy="262.7" r="1.5"/>
	<circle id="Layer" class="s2" cx="284.9" cy="597.3" r="1.5"/>
	<circle id="Layer" class="s2" cx="390.2" cy="330" r="1.5"/>
	<circle id="Layer" class="s2" cx="406.3" cy="308.5" r="1.5"/>
	<path id="Layer" class="s2" d="m462.8 252.2c-0.7 0-1.5-0.7-1.5-1.5-0.3 0-0.9-0.2-1.1-0.5-0.5-0.2-0.9-0.6-1.1-1-0.5-0.1-0.9-0.7-0.9-1.3 0-0.7 0.7-1.4 1.5-1.4 0.5 0 1.1 0.3 1.3 0.9 0.3 0.2 0.5 0.4 0.7 0.5 0.6 0.2 1.1 0.8 1.1 1.5 0.8 0 1.5 0.8 1.5 1.5 0 0.7-0.7 1.5-1.5 1.3z"/>
	<path id="Layer" class="s2" d="m519.9 222.4c0.2 0.2 0.2 0.4 0.2 0.6 0 0.7-0.7 1.5-1.5 1.5-0.7 0-1.5-0.8-1.5-1.5 0-0.6 0.4-1.1 0.8-1.3-0.2-0.2-0.2-0.4-0.2-0.5 0-0.6 0.5-1.2 1.1-1.3-0.6 0-0.9-0.4-1.1-1h2.8c-0.2 0.4-0.6 0.8-1 1 0.8 0.1 1.3 0.7 1.3 1.4 0 0.6-0.3 1-0.9 1.1z"/>
	<path id="Layer" class="s2" d="m485.7 237c-0.2 0.6-0.5 0.8-1.1 0.8q-0.8 0-1.1-0.6c-0.2 0.2-0.5 0.4-0.9 0.4-0.7 0-1.5-0.7-1.5-1.5 0-0.7 0.8-1.5 1.5-1.5q0.8 0 1.1 0.6c0.2-0.2 0.6-0.4 0.9-0.4 0.4 0 0.9 0.4 1.1 0.8 0.2-0.6 0.6-0.8 1.1-0.8 0.8 0 1.5 0.8 1.5 1.5 0 0.7-0.7 1.5-1.5 1.5-0.5 0-0.9-0.2-1.1-0.8z"/>
	<path id="Layer" class="s2" d="m474.6 244.2c-0.5 0-1.1-0.3-1.2-0.7-0.4 0.2-0.6 0.2-0.8 0.2-0.4 0-0.7-0.2-0.9-0.4-0.2 0.2-0.4 0.2-0.6 0.2-0.5 0-1.1-0.4-1.3-0.9h-0.1c-0.8 0-1.5-0.8-1.5-1.5 0-0.7 0.7-1.5 1.5-1.5 0.5 0 1.1 0.4 1.2 1h0.2c0.4 0 0.8 0.1 1 0.3 0.1-0.2 0.3-0.2 0.5-0.2 0.6 0 1.1 0.4 1.3 0.8 0.4-0.2 0.6-0.2 0.7-0.2 0.8 0 1.5 0.7 1.5 1.5 0 0.7-0.7 1.4-1.5 1.4z"/>
	<circle id="Layer" class="s2" cx="483.5" cy="248.3" r="1.5"/>
	<path id="Layer" class="s2" d="m698.2 183.6h0.9c0 0.4-0.2 0.6-0.5 0.8v0.2c0 0.7-0.6 1.3-1.3 1.5-0.2 0.1-0.6 0.3-0.9 0.3-0.2 0.2-0.6 0.4-1 0.4-0.2 0.4-0.5 0.5-0.9 0.5-0.2 0.4-0.5 0.8-1.1 0.8-0.2 0.5-0.6 1.1-1.3 1.1v0.2c0 0.7-0.7 1.5-1.5 1.5-0.2 0-0.2 0-0.3 0 0.1 0.1 0.3 0.5 0.3 0.9 0 0.7-0.7 1.5-1.5 1.5-0.7 0-1.4-0.8-1.4-1.5 0-0.8 0.7-1.5 1.4-1.5 0.2 0 0.2 0 0.4 0-0.2-0.2-0.4-0.6-0.4-0.9 0-0.8 0.6-1.5 1.3-1.5v-0.2c0-0.7 0.6-1.3 1.3-1.5 0-0.5 0.6-1.1 1.1-1.1 0.2-0.3 0.6-0.7 1.2-0.7 0.1-0.4 0.5-0.6 0.9-0.6 0.2-0.2 0.3-0.3 0.7-0.3q0.6-0.6 1.1-0.6c0.4 0 0.9 0.4 1.5 0.7z"/>
	<circle id="Layer" class="s2" cx="561.1" cy="478.7" r="1.5"/>
	<circle id="Layer" class="s2" cx="620" cy="242" r="1.5"/>
	<circle id="Layer" class="s2" cx="588.6" cy="342.5" r="1.5"/>
	<circle id="Layer" class="s2" cx="612.8" cy="260.3" r="1.5"/>
	<circle id="Layer" class="s2" cx="626.7" cy="227.3" r="1.5"/>
	<circle id="Layer" class="s2" cx="597.1" cy="310" r="1.5"/>
	<circle id="Layer" class="s2" cx="605.3" cy="282.9" r="1.5"/>
	<circle id="Layer" class="s2" cx="632.8" cy="215.6" r="1.5"/>
	<circle id="Layer" class="s2" cx="644.1" cy="199.7" r="1.5"/>
	<circle id="Layer" class="s2" cx="648.9" cy="194.7" r="1.5"/>
	<circle id="Layer" class="s2" cx="638.7" cy="206.6" r="1.5"/>
	<circle id="Layer" class="s2" cx="579.8" cy="381" r="1.5"/>
	<circle id="Layer" class="s2" cx="570.5" cy="426.2" r="1.5"/>
	<circle id="Layer" class="s2" cx="551.7" cy="539.3" r="1.5"/>
	<circle id="Layer" class="s2" cx="653.5" cy="335" r="1.5"/>
	<circle id="Layer" class="s2" cx="671.4" cy="236.1" r="1.5"/>
	<circle id="Layer" class="s2" cx="678.8" cy="210.6" r="1.5"/>
	<circle id="Layer" class="s2" cx="675.3" cy="221.9" r="1.5"/>
	<circle id="Layer" class="s2" cx="663.1" cy="276" r="1.5"/>
	<circle id="Layer" class="s2" cx="658.5" cy="302.8" r="1.5"/>
	<circle id="Layer" class="s2" cx="667.3" cy="254" r="1.5"/>
	<circle id="Layer" class="s2" cx="681.9" cy="201.9" r="1.5"/>
	<circle id="Layer" class="s2" cx="648.3" cy="373" r="1.5"/>
	<circle id="Layer" class="s2" cx="637" cy="470.2" r="1.5"/>
	<circle id="Layer" class="s2" cx="642.8" cy="417.9" r="1.5"/>
	<circle id="Layer" class="s2" cx="630.9" cy="530.8" r="1.5"/>
	<circle id="Layer" class="s2" cx="556.5" cy="223.6" r="1.5"/>
	<circle id="Layer" class="s2" cx="565.9" cy="215.4" r="1.5"/>
	<circle id="Layer" class="s2" cx="574.8" cy="209.3" r="1.5"/>
	<circle id="Layer" class="s2" cx="535.6" cy="246.7" r="1.5"/>
	<path id="Layer" class="s2" d="m584 203.4c0 0.8-0.7 1.5-1.5 1.5-0.7 0-1.4-0.7-1.4-1.5 0-0.4 0-0.5 0.1-0.7-0.5-0.2-0.9-0.8-0.9-1.3 0-0.8 0.8-1.5 1.5-1.5 0.7 0 1.5 0.7 1.5 1.5 0 0.4 0 0.5-0.2 0.7 0.6 0.2 0.9 0.8 0.9 1.3z"/>
	<circle id="Layer" class="s2" cx="524.2" cy="262.5" r="1.5"/>
	<circle id="Layer" class="s2" cx="546.3" cy="233.7" r="1.5"/>
	<circle id="Layer" class="s2" cx="597.5" cy="198.1" r="1.5"/>
	<circle id="Layer" class="s2" cx="603.8" cy="195.7" r="1.5"/>
	<path id="Layer" class="s2" d="m591.2 200.1c0 0.7-0.7 1.5-1.5 1.5-0.7 0-1.4-0.8-1.4-1.5-0.8-0.2-1.3-0.7-1.3-1.5 0-0.7 0.5-1.5 1.5-1.5 0.9 0 1.4 0.6 1.4 1.5 0.8 0.2 1.3 0.8 1.3 1.5z"/>
	<circle id="Layer" class="s2" cx="419.6" cy="561.8" r="1.5"/>
	<circle id="Layer" class="s2" cx="512" cy="282.1" r="1.5"/>
	<circle id="Layer" class="s2" cx="431.6" cy="503.6" r="1.5"/>
	<circle id="Layer" class="s2" cx="499.2" cy="305.8" r="1.5"/>
	<circle id="Layer" class="s2" cx="486.1" cy="334" r="1.5"/>
	<circle id="Layer" class="s2" cx="458.6" cy="406.7" r="1.5"/>
	<circle id="Layer" class="s2" cx="472.4" cy="367.5" r="1.5"/>
	<circle id="Layer" class="s2" cx="444.9" cy="451.9" r="1.5"/>
	<circle id="Layer" class="s2" cx="580" cy="235.8" r="1.5"/>
	<circle id="Layer" class="s2" cx="570.7" cy="250.9" r="1.5"/>
	<circle id="Layer" class="s2" cx="596.6" cy="213.9" r="1.5"/>
	<circle id="Layer" class="s2" cx="588.6" cy="223.4" r="1.5"/>
	<circle id="Layer" class="s2" cx="539.5" cy="320.6" r="1.5"/>
	<circle id="Layer" class="s2" cx="560.7" cy="269.7" r="1.5"/>
	<circle id="Layer" class="s2" cx="550.4" cy="292.8" r="1.5"/>
	<circle id="Layer" class="s2" cx="623.6" cy="193.8" r="1.5"/>
	<path id="Layer" class="s2" d="m633.5 192c-0.7 0-1.4-0.8-1.4-1.5 0-0.8 0.7-1.5 1.4-1.5q0.9 0 1.1 0.6c0-0.8 0.8-1.3 1.5-1.3 0.4 0 0.8 0.2 0.9 0.3 0-0.5 0.6-1.1 1.3-1.1 0.2 0 0.6 0 0.8 0.2 0.2-0.5 0.7-0.9 1.3-0.9 0.2 0 0.5 0 0.7 0.2h2.2c-0.2 0.5-0.7 0.9-1.3 0.9-0.1 0-0.1 0-0.3 0 0 0 0 0 0 0.2 0 0.7-0.8 1.5-1.5 1.5-0.2 0-0.6 0-0.8-0.2-0.1 0.5-0.7 0.9-1.2 0.9-0.4 0-0.8-0.2-1-0.4 0 0.6-0.5 1.1-1.3 1.1q-0.8 0-1.1-0.5c-0.2 0.7-0.7 1.3-1.3 1.5z"/>
	<circle id="Layer" class="s2" cx="617.6" cy="196.8" r="1.5"/>
	<circle id="Layer" class="s2" cx="611.2" cy="201" r="1.5"/>
	<circle id="Layer" class="s2" cx="604.2" cy="206.6" r="1.5"/>
	<circle id="Layer" class="s2" cx="504.2" cy="437.9" r="1.5"/>
	<circle id="Layer" class="s2" cx="528" cy="353.6" r="1.5"/>
	<circle id="Layer" class="s2" cx="516.2" cy="392.4" r="1.5"/>
	<circle id="Layer" class="s2" cx="481.1" cy="550" r="1.5"/>
	<circle id="Layer" class="s2" cx="492.4" cy="490.3" r="1.5"/>
	<path id="Layer" class="s2" d="m213.8 485c0 0 0 0.2 0 0.4 0 0.7-0.8 1.4-1.5 1.4-0.8 0-1.5-0.7-1.5-1.4 0-0.8 0.8-1.5 1.5-1.5 0.5 0 1.1 0.3 1.3 0.7 0 0 0-0.2 0-0.3 0-0.8 0.7-1.5 1.5-1.5 0.7 0 1.4 0.7 1.4 1.4 0 0.8-0.7 1.5-1.4 1.5-0.6 0-1-0.3-1.3-0.7z"/>
	<circle id="Layer" class="s2" cx="316.9" cy="328.1" r="1.5"/>
	<circle id="Layer" class="s2" cx="324.6" cy="315.6" r="1.5"/>
	<circle id="Layer" class="s2" cx="308.5" cy="340.9" r="1.5"/>
	<circle id="Layer" class="s2" cx="340.1" cy="307.1" r="1.5"/>
	<circle id="Layer" class="s2" cx="331.8" cy="319.1" r="1.5"/>
	<circle id="Layer" class="s2" cx="294.5" cy="349.7" r="1.5"/>
	<circle id="Layer" class="s2" cx="309.5" cy="323.3" r="1.5"/>
	<circle id="Layer" class="s2" cx="302.1" cy="336.4" r="1.5"/>
	<circle id="Layer" class="s2" cx="286.2" cy="363.4" r="1.5"/>
	<path id="Layer" class="s2" d="m175.3 572.2c0.8 0.2 1.3 0.7 1.3 1.5 0 0.7-0.7 1.4-1.4 1.4-0.4 0-0.8-0.1-1-0.3 0 0.2 0 0.2 0 0.2 0 0.7-0.7 1.4-1.4 1.4-0.8 0-1.5-0.7-1.5-1.4 0-0.8 0.7-1.5 1.5-1.5 0.3 0 0.7 0.2 0.9 0.4 0-0.2 0-0.2 0-0.2 0-0.8 0.5-1.5 1.3-1.5-0.8-0.2-1.3-0.7-1.3-1.5 0-0.7 0.7-1.5 1.5-1.5 0.7 0 1.4 0.8 1.4 1.5 0 0.8-0.5 1.5-1.3 1.5z"/>
	<path id="Layer" class="s2" d="m185.5 547.4c0 0.2-0.2 0.4-0.2 0.6q0.6 0.3 0.6 1.1c0 0.2 0 0.6-0.2 0.7 0.4 0.2 0.5 0.8 0.5 1.1 0 0.8-0.7 1.5-1.4 1.5-0.8 0-1.5-0.7-1.5-1.5 0-0.1 0-0.5 0.2-0.7-0.4-0.2-0.6-0.7-0.6-1.1 0-0.2 0.2-0.4 0.2-0.6q-0.6-0.2-0.6-1.1c0-0.1 0.2-0.3 0.2-0.5-0.2 0.2-0.3 0.2-0.5 0.2-0.8 0-1.5-0.8-1.5-1.5 0-0.7 0.7-1.5 1.5-1.5 0.7 0 1.5 0.8 1.5 1.5 0 0.2-0.2 0.4-0.2 0.5 0.2-0.1 0.3-0.1 0.5-0.1 0.8 0 1.5 0.7 1.5 1.4z"/>
	<circle id="Layer" class="s2" cx="239.3" cy="439.5" r="1.5"/>
	<path id="Layer" class="s2" d="m220.2 480.2c-0.7 0-1.4-0.8-1.4-1.5 0-0.2 0-0.5 0.1-0.7-0.7-0.2-1.1-0.6-1.1-1.3 0-0.8 0.8-1.5 1.5-1.5 0.7 0 1.5 0.7 1.5 1.5 0 0.2 0 0.5-0.2 0.7 0.7 0.2 1.1 0.6 1.1 1.3 0 0.7-0.7 1.5-1.5 1.5z"/>
	<path id="Layer" class="s2" d="m233.4 459.9c-0.6 0-1.2-0.4-1.3-1-0.2 0.2-0.6 0.2-0.8 0.2-0.7 0-1.5-0.7-1.5-1.5 0-0.7 0.8-1.4 1.5-1.4 0.6 0 1.1 0.3 1.3 0.9 0.2-0.2 0.6-0.2 0.8-0.2 0.7 0 1.4 0.7 1.4 1.5 0.4-0.4 0.8-0.8 1.3-0.8 0.8 0 1.5 0.8 1.5 1.5 0 0.8-0.7 1.5-1.5 1.5-0.9 0-1.5-0.7-1.5-1.5-0.1 0.4-0.7 0.8-1.2 0.8z"/>
	<path id="Layer" class="s2" d="m173.7 583.5c-0.2 0.5-0.8 1.1-1.5 1.1-0.6 0-1.1-0.2-1.3-0.8-0.2 0.6-0.7 1.1-1.5 1.1-0.7 0-1.5-0.7-1.5-1.4 0-0.8 0.8-1.5 1.5-1.5 0.6 0 1.1 0.2 1.3 0.7 0-0.5 0.6-1.1 1.3-1.1 0.2 0 0.4 0.2 0.6 0.2 0.2-0.6 0.7-1.1 1.4-1.1 0.8 0 1.5 0.7 1.5 1.5 0 0.7-0.7 1.4-1.5 1.4-0.1 0-0.3-0.1-0.3-0.1z"/>
	<circle id="Layer" class="s2" cx="363.6" cy="299.7" r="1.5"/>
	<circle id="Layer" class="s2" cx="372.7" cy="289.1" r="1.5"/>
	<path id="Layer" class="s2" d="m271.8 402.6c0 0.4-0.2 0.7-0.4 0.9 0.2 0.2 0.2 0.6 0.2 0.7 0 0.4-0.2 1-0.6 1.2 0 0.1 0 0.1 0 0.3 0 0.4-0.3 1-0.7 1.1 0.2 0.2 0.2 0.4 0.2 0.6 0 0.5-0.4 1.1-0.8 1.3 0.2 0.4 0.4 0.5 0.4 0.9 0 0.7-0.5 1.5-1.3 1.5 0.8 0.2 1.3 0.7 1.3 1.5 0 0.7-0.7 1.4-1.5 1.4-0.7 0-1.4-0.7-1.4-1.4 0-0.8 0.5-1.5 1.3-1.5-0.8-0.2-1.3-0.8-1.3-1.5 0-0.5 0.3-1.1 0.7-1.3-0.2-0.4-0.4-0.5-0.4-0.9 0-0.4 0.4-0.9 0.8-1.1-0.2-0.2-0.2-0.4-0.2-0.6 0-0.3 0.2-0.9 0.5-1.1 0-0.2 0-0.2 0-0.4 0-0.3 0.2-0.7 0.4-0.9-0.2-0.2-0.2-0.5-0.2-0.7 0-0.4 0-0.6 0.2-0.8-0.4-0.1-0.5-0.7-0.5-1.1 0-0.3 0-0.5 0.1-0.7-0.7-0.2-1.3-0.7-1.3-1.5 0-0.7 0.8-1.5 1.5-1.5 0.8 0 1.5 0.8 1.5 1.5 0 0.4 0 0.6-0.2 0.8 0.8 0.1 1.3 0.7 1.3 1.4 0 0.4 0 0.6-0.2 0.8q0.6 0.5 0.6 1.1z"/>
	<path id="Layer" class="s2" d="m225.4 471.5c0 0.2 0 0.2 0 0.4 0.7 0.2 1.3 0.7 1.3 1.4 0 0.8-0.7 1.5-1.5 1.5-0.9 0-1.5-0.7-1.5-1.5 0-0.1 0-0.1 0-0.3-0.7-0.2-1.3-0.8-1.3-1.5 0-0.4 0-0.6 0.2-0.7-0.2 0.1-0.5 0.1-0.7 0.1-0.7 0-1.5-0.7-1.5-1.4 0-0.8 0.8-1.5 1.5-1.5 0.7 0 1.5 0.7 1.5 1.5 0 0.3 0 0.5-0.2 0.7 0.2-0.2 0.5-0.2 0.7-0.2 0.8 0 1.5 0.6 1.5 1.5z"/>
	<path id="Layer" class="s2" d="m235.8 451.5c0-0.7 0.7-1.4 1.4-1.4 0.4 0 0.8 0.2 1 0.3 0.1-0.3 0.5-0.7 1.1-0.7 0.7 0 1.4 0.7 1.4 1.5 0 0.7-0.7 1.5-1.4 1.5-0.4 0-0.8-0.2-1-0.4-0.1 0.4-0.5 0.7-1.1 0.7-0.9 0-1.4-0.7-1.4-1.5z"/>
	<path id="Layer" class="s2" d="m180.3 563.7c-0.7 0-1.5-0.7-1.5-1.5 0-0.4 0.2-0.9 0.6-1.1-0.4-0.2-0.7-0.5-0.7-1.1 0-0.4 0.1-0.7 0.3-0.9-0.5 0-1.1-0.6-1.1-1.3 0-0.8 0.8-1.5 1.5-1.5 0.7 0 1.5 0.7 1.5 1.5 0 0.4-0.2 0.7-0.4 0.9 0.6 0 1.1 0.6 1.1 1.3 0 0.4-0.2 0.9-0.5 1.1 0.3 0.2 0.7 0.6 0.7 1.1 0 0.8-0.6 1.5-1.5 1.5z"/>
	<path id="Layer" class="s2" d="m257.4 420.7c0.2 0.2 0.2 0.5 0.2 0.7 0 0.8-0.4 1.3-1.2 1.5 0 0.2 0.2 0.6 0.2 0.7 0 0.8-0.7 1.5-1.4 1.5 0.1 0.4 0.3 0.8 0.3 1.1 0 0.8-0.7 1.5-1.5 1.5-0.7 0-1.4-0.5-1.4-1.3-0.2 0.4-0.6 0.8-1.1 0.8 0.3 0.1 0.5 0.7 0.5 1.1 0 0.2 0 0.2 0 0.3 0.4-0.3 0.8-0.7 1.3-0.7 0.7 0 1.5 0.7 1.5 1.5 0 0.7-0.8 1.5-1.5 1.5-0.7 0-1.5-0.8-1.5-1.5 0-0.2 0-0.2 0-0.4-0.3 0.4-0.7 0.7-1.3 0.7-0.2 0-0.2 0-0.3 0 0.3 0.4 0.7 0.8 0.7 1.3 0 0.8-0.7 1.5-1.5 1.5-0.7 0-1.5-0.7-1.5-1.5 0-0.7 0.8-1.4 1.5-1.4 0.2 0 0.2 0 0.4 0-0.4-0.4-0.7-0.8-0.7-1.3 0-0.8 0.3-1.3 1.1-1.5-0.4-0.2-0.6-0.7-0.6-1.1 0-0.6 0.4-1.1 0.9-1.3-0.5-0.2-0.9-0.8-0.9-1.3 0-0.7 0.7-1.5 1.5-1.5 0.7 0 1.5 0.8 1.5 1.5 0 0.5-0.4 1.1-1 1.3 0.4 0.2 0.8 0.5 0.8 1.1 0.2-0.6 0.7-0.9 1.3-0.9-0.2-0.4-0.4-0.8-0.4-1.1 0-0.6 0.4-1.1 1.1-1.3 0-0.2-0.2-0.6-0.2-0.8 0-0.5 0.2-1.1 0.8-1.3-0.2-0.1-0.2-0.5-0.2-0.7 0-0.4 0.2-0.9 0.5-1.1-0.1-0.2-0.3-0.6-0.3-0.9 0-0.4 0.2-0.8 0.3-1-0.5-0.1-0.9-0.7-0.9-1.3 0-0.7 0.8-1.4 1.5-1.4 0.7 0 1.5 0.7 1.5 1.4 0 0.4-0.2 0.8-0.4 1 0.6 0.2 0.9 0.7 0.9 1.3 0 0.3-0.2 0.9-0.5 1.1 0.2 0.2 0.3 0.5 0.3 0.9 0 0.6-0.3 0.9-0.3 1.3z"/>
	<path id="Layer" class="s2" d="m172.6 591.4c0 0.7-0.8 1.5-1.5 1.5-0.2 0-0.4-0.2-0.6-0.2-0.2 0.2-0.5 0.4-0.9 0.4-0.7 0-1.5-0.8-1.5-1.5 0-0.7 0.8-1.5 1.5-1.5 0.2 0 0.4 0.2 0.6 0.2 0.1-0.2 0.5-0.4 0.9-0.4 0.7 0 1.3 0.6 1.5 1.5z"/>
	<circle id="Layer" class="s2" cx="347.5" cy="309.7" r="1.5"/>
	<circle id="Layer" class="s2" cx="356" cy="298.4" r="1.5"/>
	<circle id="Layer" class="s2" cx="225.4" cy="384.9" r="1.5"/>
	<circle id="Layer" class="s2" cx="234.8" cy="353.8" r="1.5"/>
	<circle id="Layer" class="s2" cx="220.4" cy="400.6" r="1.5"/>
	<circle id="Layer" class="s2" cx="209.3" cy="432.7" r="1.5"/>
	<circle id="Layer" class="s2" cx="201.9" cy="422.2" r="1.5"/>
	<circle id="Layer" class="s2" cx="215.1" cy="416.6" r="1.5"/>
	<circle id="Layer" class="s2" cx="203.6" cy="449.1" r="1.5"/>
	<path id="Layer" class="s2" d="m175.7 505.5c0.7 0 1.5 0.7 1.5 1.5 0 0.7-0.6 1.5-1.3 1.5l-1.3-2.3c0.2-0.3 0.6-0.7 1.1-0.7z"/>
	<circle id="Layer" class="s2" cx="192" cy="455.2" r="1.5"/>
	<circle id="Layer" class="s2" cx="197.1" cy="438.6" r="1.5"/>
	<circle id="Layer" class="s2" cx="181.1" cy="489.4" r="1.5"/>
	<circle id="Layer" class="s2" cx="186.6" cy="472.1" r="1.5"/>
	<circle id="Layer" class="s2" cx="230.2" cy="369.3" r="1.5"/>
	<circle id="Layer" class="s2" cx="227.6" cy="410.2" r="1.5"/>
	<circle id="Layer" class="s2" cx="233.7" cy="394.6" r="1.5"/>
	<circle id="Layer" class="s2" cx="197.5" cy="466" r="1.5"/>
	<circle id="Layer" class="s2" cx="214.9" cy="442.3" r="1.5"/>
	<circle id="Layer" class="s2" cx="249.8" cy="349" r="1.5"/>
	<circle id="Layer" class="s2" cx="221.3" cy="426.1" r="1.5"/>
	<circle id="Layer" class="s2" cx="239.4" cy="379.1" r="1.5"/>
	<circle id="Layer" class="s2" cx="185.3" cy="500.9" r="1.5"/>
	<circle id="Layer" class="s2" cx="191.4" cy="483.1" r="1.5"/>
	<circle id="Layer" class="s2" cx="244.8" cy="364" r="1.5"/>
	<circle id="Layer" class="s2" cx="179.2" cy="519" r="1.5"/>
	<path id="Layer" class="s2" d="m172.4 536c0.2 0 0.3-0.2 0.7-0.2 0.8 0 1.5 0.7 1.5 1.5 0 0.5-0.2 1.1-0.7 1.3z"/>
	<circle id="Layer" class="s2" cx="200.6" cy="378.4" r="1.5"/>
	<circle id="Layer" class="s2" cx="185.3" cy="381.9" r="1.5"/>
	<circle id="Layer" class="s2" cx="163.9" cy="418.5" r="1.5"/>
	<circle id="Layer" class="s2" cx="166.8" cy="401.7" r="1.5"/>
	<circle id="Layer" class="s2" cx="175" cy="431.4" r="1.5"/>
	<circle id="Layer" class="s2" cx="178.7" cy="415" r="1.5"/>
	<circle id="Layer" class="s2" cx="182.2" cy="398.3" r="1.5"/>
	<circle id="Layer" class="s2" cx="188.3" cy="365.4" r="1.5"/>
	<circle id="Layer" class="s2" cx="172.2" cy="368.4" r="1.5"/>
	<path id="Layer" class="s2" d="m1288.9 352h2.7c-0.1 0.5-0.7 0.9-1.3 0.9-0.7 0-1.2-0.4-1.4-0.9z"/>
	<circle id="Layer" class="s2" cx="153.5" cy="387.8" r="1.5"/>
	<circle id="Layer" class="s2" cx="169.6" cy="385" r="1.5"/>
	<circle id="Layer" class="s2" cx="155.8" cy="371" r="1.5"/>
	<circle id="Layer" class="s2" cx="211.4" cy="390" r="1.5"/>
	<path id="Layer" class="s2" d="m175.2 476.1c0.7 0 1.4 0.8 1.4 1.5 0 0.7-0.7 1.5-1.4 1.5-0.2 0-0.4-0.2-0.6-0.2l-0.9-1.5c0.2-0.7 0.7-1.3 1.5-1.3z"/>
	<circle id="Layer" class="s2" cx="184.4" cy="443.8" r="1.5"/>
	<circle id="Layer" class="s2" cx="179.8" cy="460.6" r="1.5"/>
	<circle id="Layer" class="s2" cx="215.6" cy="374.1" r="1.5"/>
	<circle id="Layer" class="s2" cx="219.7" cy="358.2" r="1.5"/>
	<circle id="Layer" class="s2" cx="171.3" cy="448.2" r="1.5"/>
	<circle id="Layer" class="s2" cx="206.7" cy="405.9" r="1.5"/>
	<circle id="Layer" class="s2" cx="204.2" cy="362.1" r="1.5"/>
	<circle id="Layer" class="s2" cx="188.8" cy="427.2" r="1.5"/>
	<circle id="Layer" class="s2" cx="208" cy="458.9" r="1.5"/>
	<circle id="Layer" class="s2" cx="197" cy="394.5" r="1.5"/>
	<circle id="Layer" class="s2" cx="192.9" cy="410.7" r="1.5"/>
	<circle id="Layer" class="s2" cx="252.6" cy="395.4" r="1.5"/>
	<circle id="Layer" class="s2" cx="244.8" cy="410.5" r="1.5"/>
	<circle id="Layer" class="s2" cx="236.9" cy="426.4" r="1.5"/>
	<circle id="Layer" class="s2" cx="211.9" cy="477.2" r="1.5"/>
	<circle id="Layer" class="s2" cx="220.2" cy="459.5" r="1.5"/>
	<circle id="Layer" class="s2" cx="228.7" cy="442.7" r="1.5"/>
	<circle id="Layer" class="s2" cx="287.7" cy="344.2" r="1.5"/>
	<circle id="Layer" class="s2" cx="201.4" cy="476.1" r="1.5"/>
	<circle id="Layer" class="s2" cx="238.9" cy="433.3" r="1.5"/>
	<circle id="Layer" class="s2" cx="229.7" cy="449.9" r="1.5"/>
	<circle id="Layer" class="s2" cx="354" cy="310.4" r="1.5"/>
	<circle id="Layer" class="s2" cx="256.6" cy="401.7" r="1.5"/>
	<circle id="Layer" class="s2" cx="294.3" cy="330.5" r="1.5"/>
	<circle id="Layer" class="s2" cx="280.6" cy="358.2" r="1.5"/>
	<circle id="Layer" class="s2" cx="264.9" cy="386.7" r="1.5"/>
	<circle id="Layer" class="s2" cx="272.9" cy="372.3" r="1.5"/>
	<circle id="Layer" class="s2" cx="247.8" cy="417.2" r="1.5"/>
	<circle id="Layer" class="s2" cx="253.1" cy="372.8" r="1.5"/>
	<circle id="Layer" class="s2" cx="246.8" cy="387.8" r="1.5"/>
	<circle id="Layer" class="s2" cx="264.8" cy="343.3" r="1.5"/>
	<circle id="Layer" class="s2" cx="226" cy="434.7" r="1.5"/>
	<circle id="Layer" class="s2" cx="233.2" cy="418.7" r="1.5"/>
	<circle id="Layer" class="s2" cx="259.2" cy="358.1" r="1.5"/>
	<circle id="Layer" class="s2" cx="240.2" cy="403.1" r="1.5"/>
	<circle id="Layer" class="s2" cx="194.4" cy="493.7" r="1.5"/>
	<circle id="Layer" class="s2" cx="187.5" cy="512" r="1.5"/>
	<circle id="Layer" class="s2" cx="174.2" cy="550.2" r="1.5"/>
	<path id="Layer" class="s2" d="m167.8 568.1c0.7 0 1.4 0.8 1.4 1.5 0 0.4-0.1 0.7-0.3 0.9l-1.3-2.4c0.2 0 0.2-0.2 0.2 0z"/>
	<circle id="Layer" class="s2" cx="180.9" cy="530.8" r="1.5"/>
	<circle id="Layer" class="s2" cx="210.8" cy="468.2" r="1.5"/>
	<path id="Layer" class="s2" d="m162 604.5c0 0.2 0 0.2 0 0.4l-0.9-1.7c0.7 0.2 1.1 0.8 0.9 1.3z"/>
	<circle id="Layer" class="s2" cx="173.9" cy="563.1" r="1.5"/>
	<circle id="Layer" class="s2" cx="273.4" cy="351.4" r="1.5"/>
	<circle id="Layer" class="s2" cx="279.5" cy="337.2" r="1.5"/>
	<circle id="Layer" class="s2" cx="266.8" cy="365.8" r="1.5"/>
	<circle id="Layer" class="s2" cx="195.7" cy="504.2" r="1.5"/>
	<circle id="Layer" class="s2" cx="203.2" cy="485.9" r="1.5"/>
	<circle id="Layer" class="s2" cx="259.8" cy="380.4" r="1.5"/>
	<circle id="Layer" class="s2" cx="218.4" cy="451.2" r="1.5"/>
	<circle id="Layer" class="s2" cx="238.9" cy="485.7" r="1.5"/>
	<circle id="Layer" class="s2" cx="253.9" cy="454.9" r="1.5"/>
	<circle id="Layer" class="s2" cx="269.4" cy="427" r="1.5"/>
	<circle id="Layer" class="s2" cx="212.1" cy="556.1" r="1.5"/>
	<circle id="Layer" class="s2" cx="224.9" cy="519.5" r="1.5"/>
	<path id="Layer" class="s2" d="m343.7 328.7c0 0.7-0.8 1.5-1.5 1.5-0.4 0-0.8-0.2-1-0.4 0 0.9-0.7 1.5-1.4 1.5-0.2 0-0.4-0.2-0.6-0.2 0 0.5-0.5 1.1-1.3 1.1-0.2 0-0.3-0.2-0.5-0.2-0.2 0.6-0.8 0.9-1.3 0.9-0.2 0-0.6 0-0.8-0.2q-0.2 0.6-1.1 0.6c-0.3 0-0.9-0.2-1.1-0.6-0.3 0.2-0.7 0.4-1.1 0.4-0.7 0-1.5-0.7-1.5-1.5q-0.2 0.6-1.1 0.6c-0.7 0-1.5-0.7-1.5-1.5 0-0.7 0.8-1.5 1.5-1.5 0.8 0 1.5 0.8 1.5 1.5q0.3-0.5 1.1-0.5c0.4 0 0.9 0.1 1.1 0.5 0.4-0.2 0.8-0.4 1.1-0.4 0.2 0 0.6 0 0.8 0.2q0.2-0.5 1.1-0.5c0.2 0 0.3 0.2 0.5 0.2 0.2-0.6 0.8-1 1.3-1 0.2 0 0.4 0.2 0.6 0.2 0-0.5 0.5-1.1 1.3-1.1 0.3 0 0.7 0.2 0.9 0.4 0-0.9 0.7-1.5 1.5-1.5 0.9 0 1.5 0.6 1.5 1.5z"/>
	<path id="Layer" class="s2" d="m298.6 378c-0.8 0-1.5-0.7-1.5-1.5-0.6 0-0.9-0.3-1.1-0.9-0.2-0.2-0.4-0.4-0.6-0.7-0.2 0-0.3-0.2-0.3-0.4-0.2-0.2-0.4-0.4-0.4-0.6-0.2-0.1-0.4-0.3-0.6-0.7-0.5-0.2-0.9-0.7-0.9-1.3-0.7 0-1.5-0.7-1.5-1.5 0-0.7 0.8-1.4 1.5-1.4 0.8 0 1.5 0.7 1.5 1.4 0.5 0 1.1 0.6 1.3 1.1 0.4 0 0.7 0.4 0.9 0.8q0.3 0.3 0.6 0.5c0.1 0.2 0.3 0.4 0.3 0.6 0.2 0.2 0.4 0.4 0.4 0.5 0.4 0.2 0.7 0.6 0.7 1.2 0.8 0.1 1.3 0.7 1.3 1.4 0 0.8-0.5 1.5-1.6 1.5z"/>
	<circle id="Layer" class="s2" cx="201" cy="595.5" r="1.5"/>
	<path id="Layer" class="s2" d="m314.5 360.3q-0.9 0-1.1-0.6c-0.2 0.2-0.4 0.2-0.6 0.2-0.2 0-0.4-0.2-0.6-0.2-0.1 0.2-0.3 0.2-0.5 0.2h-0.2c-0.2 0.2-0.4 0.2-0.6 0.2-0.1 0-0.3-0.2-0.5-0.2-0.2 0-0.2 0-0.4 0-0.3 0-0.7-0.2-0.9-0.4-0.2 0-0.2 0-0.2 0-0.5 0-1.1-0.3-1.3-0.9h-0.2c-0.7 0-1.4-0.7-1.4-1.5-0.2 0.2-0.4 0.2-0.6 0.2-0.7 0-1.5-0.7-1.5-1.5 0-0.7 0.8-1.4 1.5-1.4 0.7 0 1.5 0.7 1.5 1.4 0.2-0.1 0.4-0.1 0.5-0.1 0.6 0 1.1 0.3 1.3 0.9h0.2c0.4 0 0.8 0.2 0.9 0.4 0.2 0 0.2 0 0.2 0 0.2 0 0.4 0.1 0.6 0.1 0.2 0 0.2 0 0.3 0h0.2c0.2-0.1 0.4-0.1 0.6-0.1 0.2 0 0.4 0.1 0.5 0.1 0.2-0.1 0.4-0.1 0.6-0.1q0.8 0 1.1 0.5c0.2-0.2 0.4-0.2 0.6-0.2 0.7 0 1.4 0.8 1.4 1.5 0 0.2 0 0.2 0 0.2q0.6-0.6 1.1-0.6c0.8 0 1.5 0.8 1.5 1.5 0 0.7-0.7 1.5-1.5 1.5-0.9 0-1.4-0.8-1.4-1.7-0.2 0.2 0 0 0 0q-0.6 0.6-1.1 0.6z"/>
	<path id="Layer" class="s2" d="m377.5 302.1c-0.8 0-1.5-0.8-1.5-1.5 0-0.4 0.2-0.7 0.4-0.9q-0.6-0.6-0.6-1.1c0-0.8 0.7-1.5 1.5-1.5 0.7 0 1.5 0.7 1.5 1.5 0 0.3-0.2 0.7-0.4 0.9q0.5 0.5 0.5 1.1c0 0.7-0.7 1.5-1.4 1.5z"/>
	<path id="Layer" class="s2" d="m392.6 291v0.2c0.2 0 0.2 0 0.4 0 0.7 0 1.5 0.7 1.5 1.5 0 0.7-0.8 1.4-1.5 1.4-0.8 0-1.5-0.7-1.5-1.4v-0.2c-0.2 0-0.2 0-0.4 0-0.7 0-1.4-0.8-1.4-1.5-1 0-1.5-0.7-1.5-1.5 0-0.7 0.7-1.5 1.5-1.5 0.7 0 1.4 0.8 1.4 1.5 0.8 0 1.5 0.8 1.5 1.5z"/>
	<circle id="Layer" class="s2" cx="223.4" cy="501.1" r="1.5"/>
	<circle id="Layer" class="s2" cx="210.1" cy="533.6" r="1.5"/>
	<circle id="Layer" class="s2" cx="198.1" cy="568.7" r="1.5"/>
	<circle id="Layer" class="s2" cx="187.9" cy="606" r="1.5"/>
	<path id="Layer" class="s2" d="m415.2 274.2h-0.2c0.2 0.2 0.2 0.4 0.2 0.5 0 0.8-0.8 1.5-1.5 1.5-0.8 0-1.5-0.7-1.5-1.5 0-0.7 0.7-1.4 1.5-1.4h0.2c-0.2-0.2-0.2-0.4-0.2-0.6 0-0.7 0.3-1.3 1.1-1.5-0.2-0.2-0.4-0.5-0.4-0.9 0-0.7 0.8-1.5 1.5-1.5 0.7 0 1.5 0.8 1.5 1.5 0 0.7-0.4 1.3-1.1 1.5 0.1 0.2 0.3 0.5 0.3 0.9 0 0.7-0.5 1.3-1.4 1.5z"/>
	<path id="Layer" class="s2" d="m438.1 259.8c0 0.2-0.2 0.5-0.4 0.7 0 0.2 0.2 0.4 0.2 0.7q0 0.9-0.6 1.2v0.1c0 0.4-0.2 1-0.5 1.1 0.2 0.4 0.3 0.6 0.3 1 0 0.7-0.7 1.5-1.4 1.5-0.8 0-1.5-0.8-1.5-1.5 0-0.4 0.2-1 0.5-1.1-0.1-0.4-0.3-0.6-0.3-1q0-0.8 0.5-1.1v-0.2c0-0.1 0.2-0.5 0.4-0.7 0-0.2-0.2-0.5-0.2-0.7 0-0.8 0.7-1.5 1.5-1.5 0.7 0 1.5 0.5 1.5 1.5z"/>
	<circle id="Layer" class="s2" cx="237.6" cy="471.1" r="1.5"/>
	<path id="Layer" class="s2" d="m407.6 283.2c-0.8 0-1.3-0.3-1.5-1.1-0.2 0.6-0.7 0.9-1.3 0.9-0.7 0-1.5-0.7-1.5-1.4 0-0.8 0.8-1.5 1.5-1.5 0.7 0 1.3 0.4 1.5 1.1 0.2-0.4 0.7-0.7 1.3-0.7 0.7 0 1.5 0.7 1.5 1.4 0 0.8-0.6 1.5-1.5 1.3z"/>
	<path id="Layer" class="s2" d="m369.1 310.8c-0.7 0-1.4-0.8-1.4-1.5v-0.2c-0.2 0.2-0.6 0.4-1 0.4-0.7 0-1.4-0.8-1.4-1.5 0-0.7 0.7-1.5 1.4-1.5 0.8 0 1.5 0.8 1.5 1.5v0.2c0.2-0.2 0.6-0.4 0.9-0.4-0.5-0.2-0.9-0.7-0.9-1.3 0-0.7 0.8-1.5 1.5-1.5 0.7 0 1.5 0.8 1.5 1.5 0 0.8-0.6 1.5-1.3 1.5 0.5 0.2 0.9 0.7 0.9 1.3 0 0.7-0.7 1.3-1.7 1.5z"/>
	<path id="Layer" class="s2" d="m386.3 296.9c0 0.7-0.7 1.5-1.4 1.5-0.8 0-1.5-0.8-1.5-1.5 0-0.2 0-0.2 0-0.4-0.4-0.1-0.8-0.5-0.8-1.1 0-0.7 0.8-1.5 1.5-1.5 0.8 0 1.5 0.8 1.5 1.5 0 0.2 0 0.2 0 0.4 0.4 0.2 0.5 0.7 0.7 1.1z"/>
	<path id="Layer" class="s2" d="m399.8 286.4c0 0.7-0.7 1.5-1.5 1.5-0.5 0-1.1-0.4-1.3-0.8-0.1 0.2-0.3 0.2-0.5 0.2-0.7 0-1.5-0.7-1.5-1.5 0-0.7 0.8-1.5 1.5-1.5 0.5 0 1.1 0.4 1.3 0.8 0.2-0.2 0.4-0.2 0.5-0.2 0.8 0 1.5 0.6 1.5 1.5z"/>
	<circle id="Layer" class="s2" cx="354.7" cy="325.4" r="1.5"/>
	<circle id="Layer" class="s2" cx="257.7" cy="469.5" r="1.5"/>
	<circle id="Layer" class="s2" cx="217.8" cy="584" r="1.5"/>
	<circle id="Layer" class="s2" cx="243.1" cy="504.6" r="1.5"/>
	<circle id="Layer" class="s2" cx="229.7" cy="542.8" r="1.5"/>
	<circle id="Layer" class="s2" cx="289.7" cy="409.4" r="1.5"/>
	<circle id="Layer" class="s2" cx="273.4" cy="437.9" r="1.5"/>
	<circle id="Layer" class="s2" cx="306.1" cy="384.1" r="1.5"/>
	<circle id="Layer" class="s2" cx="370.6" cy="299.3" r="1.5"/>
	<circle id="Layer" class="s2" cx="389.8" cy="279.7" r="1.5"/>
	<circle id="Layer" class="s2" cx="380.6" cy="289.3" r="1.5"/>
	<path id="Layer" class="s2" d="m362.3 310.8c0 0 0 0.1 0 0.3 0 0 0.2 0 0.4 0 0.7 0 1.5 0.8 1.5 1.5 0 0.7-0.8 1.5-1.5 1.5-0.8 0-1.5-0.8-1.5-1.5 0 0 0-0.2 0-0.4 0 0-0.2 0-0.4 0-0.7 0-1.4-0.7-1.4-1.4 0-0.8 0.7-1.5 1.4-1.5 0.8 0 1.3 0.7 1.5 1.5z"/>
	<circle id="Layer" class="s2" cx="178.8" cy="591.4" r="1.5"/>
	<path id="Layer" class="s2" d="m210.4 503.6c-0.3 0-0.7-0.1-0.9-0.3-0.2 0.7-0.7 1.3-1.5 1.3-0.1 0-0.1 0-0.1 0-0.2 0.5-0.8 0.9-1.3 0.9-0.4 0-0.6 0-0.8-0.2q-0.3 0.6-1.1 0.6c-0.7 0-1.5-0.8-1.5-1.5 0-0.8 0.8-1.5 1.5-1.5 0.4 0 0.6 0 0.8 0.2q0.2-0.6 1.1-0.6c0.1 0 0.1 0 0.1 0 0.2-0.5 0.8-0.9 1.3-0.9 0.4 0 0.8 0.2 1 0.4 0.1-0.8 0.7-1.3 1.4-1.3 0.8 0 1.5 0.7 1.5 1.5 0 0.7-0.5 1.4-1.5 1.4z"/>
	<path id="Layer" class="s2" d="m197.5 529.3c-0.5 0-1.1-0.3-1.3-0.9-0.2 0.2-0.4 0.2-0.5 0.2q-0.9 0-1.1-0.6c-0.4 0-0.8-0.1-1-0.5-0.7 0-1.4-0.8-1.4-1.5v-0.2q-0.6 0.6-1.2 0.6c-0.7 0-1.4-0.8-1.4-1.5 0-0.7 0.7-1.5 1.4-1.5 0.8 0 1.5 0.8 1.5 1.5v0.2q0.6-0.6 1.1-0.6c0.4 0 1 0.2 1.1 0.6 0.6 0 1 0 1.1 0.4 0.6 0 1 0.3 1.2 0.9 0.1-0.2 0.3-0.2 0.5-0.2 0.7 0 1.5 0.7 1.5 1.5 0 0.7-0.6 1.4-1.5 1.6z"/>
	<circle id="Layer" class="s2" cx="189.2" cy="559.3" r="1.5"/>
	<path id="Layer" class="s2" d="m243.3 444.5c0 0.8-0.7 1.5-1.5 1.5q-0.8 0-1.1-0.6c-0.1 0.6-0.7 1.2-1.4 1.2-0.8 0-1.5-0.8-1.5-1.5 0-0.8 0.7-1.5 1.5-1.5q0.8 0 1.1 0.6c0.2-0.6 0.7-1.2 1.4-1.2 0.8 0 1.5 0.8 1.5 1.5z"/>
	<path id="Layer" class="s2" d="m230.6 465.4c0 0.7-0.8 1.5-1.5 1.5-0.6 0-1.1-0.4-1.3-0.9-0.7 0-1.3-0.8-1.3-1.5 0-0.8 0.8-1.5 1.5-1.5 0.5 0 1.1 0.4 1.3 0.9 0.7 0.2 1.3 0.8 1.3 1.5z"/>
	<path id="Layer" class="s2" d="m203.6 514.9c0 0.8-0.7 1.5-1.5 1.5-0.2 0-0.3-0.2-0.5-0.2-0.4 0.2-0.6 0.4-1 0.4-0.1 0-0.1 0-0.3 0-0.2 0-0.6 0.2-0.8 0.2-0.5 0-1.1-0.4-1.3-0.8-0.3 0.2-0.5 0.4-0.9 0.4-0.9 0-1.5-0.7-1.5-1.5 0-0.7 0.8-1.5 1.5-1.5 0.6 0 1.1 0.4 1.3 0.8 0.4-0.2 0.6-0.4 0.9-0.4 0.2 0 0.2 0 0.4 0 0.2 0 0.6-0.2 0.7-0.2 0.2 0 0.4 0.2 0.6 0.2 0.4-0.2 0.6-0.4 0.9-0.4 0.8 0 1.3 0.6 1.5 1.5z"/>
	<path id="Layer" class="s2" d="m192.7 540.2c0 0.8-0.7 1.5-1.5 1.5-0.7 0-1.5-0.7-1.5-1.5-0.5-0.2-0.9-0.7-0.9-1.3-0.3-0.1-0.5-0.5-0.5-0.9-1 0-1.5-0.7-1.5-1.5 0-0.7 0.7-1.4 1.5-1.4 0.7 0 1.3 0.5 1.4 1.3 0.8 0 1.5 0.5 1.5 1.2q0.6 0.3 0.6 1.2c0.5 0.1 0.9 0.7 0.9 1.4z"/>
	<path id="Layer" class="s2" d="m213.4 492.4c-0.4 0-0.6 0-0.7-0.2 0 0.2 0 0.2 0 0.4 0 0.7-0.8 1.4-1.5 1.4 0 0-0.2-0.1-0.4-0.1-0.2 0.7-0.7 1.3-1.5 1.3-0.5 0-1.1-0.6-1.3-1.2-0.1 0.8-0.7 1.3-1.4 1.3-0.8 0-1.5-0.7-1.5-1.4 0-0.8 0.7-1.5 1.5-1.5 0.5 0 1.1 0.5 1.3 1.1 0.1-0.8 0.7-1.3 1.4-1.3 0 0 0.2 0.2 0.4 0.2 0.2-0.8 0.7-1.3 1.5-1.3 0.4 0 0.5 0 0.7 0.2 0-0.2 0-0.2 0-0.4 0-0.7 0.8-1.5 1.5-1.5 0.7 0 1.5 0.8 1.5 1.5 0 0.7-0.6 1.5-1.5 1.5z"/>
	<circle id="Layer" class="s2" cx="252.6" cy="443.8" r="1.5"/>
	<circle id="Layer" class="s2" cx="182" cy="570.9" r="1.5"/>
	<path id="Layer" class="s2" d="m172 601.2c0 0.7-0.7 1.5-1.5 1.5-0.5 0-1.1-0.4-1.3-0.9-0.1 0-0.3 0.1-0.7 0.1-0.4 0-0.9-0.1-1.1-0.5 0 0-0.2 0-0.4 0-0.7 0-1.5-0.8-1.5-1.5 0-0.7 0.8-1.5 1.5-1.5 0.4 0 0.9 0.2 1.1 0.6 0-0.2 0.2-0.2 0.4-0.2 0.6 0 1.1 0.4 1.3 0.9 0.2-0.2 0.4-0.3 0.7-0.3 0.8 0 1.5 0.7 1.5 1.8z"/>
	<circle id="Layer" class="s2" cx="379.1" cy="308.4" r="1.5"/>
	<path id="Layer" class="s2" d="m426.4 264.2c0.4 0.4 0.8 0.7 0.8 1.3 0 0.6-0.4 1.1-1 1.3 0 0.2 0 0.2 0 0.4 0 0.7-0.3 1.3-1.1 1.4 0 0 0 0.2 0 0.4 0 0.7-0.7 1.5-1.4 1.5-0.8 0-1.5-0.8-1.5-1.5 0-0.7 0.3-1.3 1.1-1.5 0 0 0-0.2 0-0.3 0-0.6 0.4-1.1 0.9-1.3 0-0.2 0-0.2 0-0.4 0-0.6 0.4-1.1 0.7-1.3-0.3-0.4-0.7-0.7-0.7-1.3 0-0.7 0.7-1.5 1.5-1.5 0.7 0 1.5 0.8 1.5 1.5 0 0.6-0.4 0.9-0.8 1.3z"/>
	<path id="Layer" class="s2" d="m283.4 394.3c0.2 0 0.2 0 0.2 0 0.7 0 1.5 0.7 1.5 1.5 0 0.7-0.8 1.4-1.5 1.4-0.7 0-1.5-0.7-1.5-1.4 0-0.4 0.2-1 0.6-1.2-0.2 0-0.2 0-0.2 0-0.7 0-1.5-0.7-1.5-1.4 0-0.4 0-0.6 0.2-0.8q-0.6-0.5-0.6-1.1c0-0.4 0-0.5 0.2-0.7-0.2-0.2-0.2-0.4-0.2-0.6 0-0.3 0-0.5 0.2-0.7 0-0.2 0-0.2 0-0.4 0-0.2 0-0.2 0-0.4-0.2-0.1-0.2-0.3-0.2-0.5v-0.2c-0.1-0.4-0.3-0.7-0.3-1.1v-0.2c-0.6-0.2-0.9-0.7-0.9-1.3 0-0.2 0-0.3 0.1-0.5 0 0 0 0-0.1 0-0.8 0-1.5-0.8-1.5-1.5 0-0.8 0.7-1.5 1.5-1.5 0.7 0 1.4 0.7 1.4 1.5 0 0.2 0 0.4-0.2 0.5 0 0 0 0 0.2 0 0.8 0 1.5 0.8 1.5 1.5v0.2c0.6 0.2 0.9 0.7 0.9 1.3v0.2c0.2 0.4 0.4 0.7 0.4 1.1 0 0.2 0 0.2 0 0.4 0.2 0.1 0.2 0.3 0.2 0.5 0 0.4 0 0.6-0.2 0.8 0 0.1 0 0.1 0 0.3 0 0.4 0 0.6-0.2 0.8 0.2 0.1 0.2 0.3 0.2 0.5 0 0.4 0 0.6-0.2 0.8q0.6 0.5 0.6 1.1 0 0.8-0.6 1.1z"/>
	<circle id="Layer" class="s2" cx="406.8" cy="276.4" r="1.5"/>
	<path id="Layer" class="s2" d="m352.9 319.3c-0.4 0-0.8-0.2-0.9-0.4 0 0 0 0 0 0.2 0 0.7-0.8 1.5-1.5 1.5-0.4 0-0.8-0.2-0.9-0.4-0.2 0.7-0.8 1.3-1.5 1.3-0.4 0-0.9-0.2-1.1-0.6-0.2 0.6-0.8 0.9-1.3 0.9-0.8 0-1.3-0.3-1.5-1.1-0.2 0.6-0.7 1-1.3 1-0.7 0-1.5-0.8-1.5-1.5 0-0.8 0.8-1.5 1.5-1.5 0.8 0 1.3 0.4 1.5 1.1 0.2-0.5 0.7-0.9 1.3-0.9 0.4 0 0.9 0.2 1.1 0.5 0.2-0.5 0.7-0.9 1.3-0.9 0.4 0 0.7 0.2 0.9 0.4 0.2-0.7 0.7-1.3 1.5-1.3 0.4 0 0.7 0.2 0.9 0.4 0 0 0 0 0-0.2 0-0.8 0.8-1.5 1.5-1.5 0.7 0 1.5 0.7 1.5 1.5 0 0.7-0.6 1.5-1.5 1.5z"/>
	<circle id="Layer" class="s2" cx="407.8" cy="269.9" r="1.5"/>
	<circle id="Layer" class="s2" cx="398.3" cy="278.8" r="1.5"/>
	<path id="Layer" class="s2" d="m326.5 345.7h-0.2c-0.2 0.4-0.8 0.5-1.1 0.5-0.2 0-0.4-0.1-0.6-0.1-0.3 0.1-0.5 0.3-0.9 0.3-0.4 0-0.7-0.2-0.9-0.3-0.2 0.1-0.4 0.1-0.6 0.1-0.5 0-1.1-0.3-1.3-0.9-0.2 0.2-0.5 0.2-0.7 0.2-0.8 0-1.5-0.7-1.5-1.5 0-0.7 0.7-1.5 1.5-1.5 0.5 0 1.1 0.4 1.3 1 0.2-0.2 0.5-0.2 0.7-0.2 0.4 0 0.8 0.2 0.9 0.3 0.2-0.1 0.4-0.1 0.6-0.1 0.2 0 0.4 0.1 0.6 0.1 0.3-0.1 0.5-0.3 0.9-0.3h0.2c0.1-0.4 0.7-0.6 1.1-0.6 0.2 0 0.2 0 0.3 0 0.2-0.5 0.6-0.7 1.1-0.7 0.2 0 0.6 0 0.8 0.2 0.2-0.4 0.5-0.8 1.1-0.8 0.7 0 1.3 0.4 1.5 1.1 0.2-0.5 0.7-1.1 1.5-1.1 0.7 0 1.4 0.8 1.4 1.5 0 0.7-0.7 1.5-1.4 1.5-0.8 0-1.3-0.4-1.5-1.1-0.2 0.5-0.8 1.1-1.5 1.1-0.2 0-0.6 0-0.7-0.2-0.2 0.4-0.6 0.7-1.2 0.7-0.1 0-0.1 0-0.3 0-0.4 0.4-0.8 0.8-1.1 0.8z"/>
	<circle id="Layer" class="s2" cx="224.3" cy="486.5" r="1.5"/>
	<circle id="Layer" class="s2" cx="198.4" cy="546.9" r="1.5"/>
	<circle id="Layer" class="s2" cx="210.8" cy="515.7" r="1.5"/>
	<circle id="Layer" class="s2" cx="187.2" cy="580.3" r="1.5"/>
	<circle id="Layer" class="s2" cx="1212.8" cy="428.3" r="1.5"/>
	<circle id="Layer" class="s2" cx="1227.7" cy="452.7" r="1.5"/>
	<circle id="Layer" class="s2" cx="1242.1" cy="479.8" r="1.5"/>
	<circle id="Layer" class="s2" cx="1268.7" cy="541.2" r="1.5"/>
	<circle id="Layer" class="s2" cx="1256" cy="509.2" r="1.5"/>
	<circle id="Layer" class="s2" cx="1280.2" cy="575.3" r="1.5"/>
	<path id="Layer" class="s2" d="m1086.9 294.1c0 0.8-0.7 1.5-1.5 1.5-0.7 0-1.4-0.7-1.4-1.5 0-0.5 0.3-1.1 0.9-1.3 0-0.7 0.7-1.4 1.5-1.4 0.7 0 1.4 0.7 1.4 1.4 0 0.6-0.3 1.1-0.9 1.3z"/>
	<circle id="Layer" class="s2" cx="1255.8" cy="527.5" r="1.5"/>
	<circle id="Layer" class="s2" cx="1278.7" cy="601.4" r="1.5"/>
	<circle id="Layer" class="s2" cx="1242.1" cy="494.2" r="1.5"/>
	<circle id="Layer" class="s2" cx="1227.5" cy="463.9" r="1.5"/>
	<circle id="Layer" class="s2" cx="1212.4" cy="436.4" r="1.5"/>
	<circle id="Layer" class="s2" cx="1268" cy="563.1" r="1.5"/>
	<circle id="Layer" class="s2" cx="1083.6" cy="284.7" r="1.5"/>
	<circle id="Layer" class="s2" cx="1055.9" cy="265.5" r="1.5"/>
	<circle id="Layer" class="s2" cx="1065.5" cy="274" r="1.5"/>
	<path id="Layer" class="s2" d="m1237.1 459.1c0-0.7 0.8-1.5 1.5-1.5 0.2 0 0.4 0.2 0.6 0.2q0.5-0.5 1.1-0.5c0.7 0 1.5 0.7 1.5 1.5 0 0.7-0.8 1.4-1.5 1.4-0.2 0-0.4-0.2-0.6-0.2q-0.5 0.6-1.1 0.6c-0.9 0-1.5-0.6-1.5-1.5z"/>
	<path id="Layer" class="s2" d="m1225.1 435.3c0.4 0 0.8 0.2 1 0.4 0-0.2 0-0.2 0-0.4 0-0.8 0.7-1.5 1.4-1.5 0.8 0 1.5 0.8 1.5 1.5 0 0.7-0.7 1.5-1.5 1.5-0.3 0-0.7-0.2-0.9-0.4 0 0.2 0 0.2 0 0.4 0 0.7-0.7 1.4-1.5 1.4-0.7 0-1.4-0.7-1.4-1.4 0-0.8 0.7-1.5 1.4-1.5z"/>
	<path id="Layer" class="s2" d="m1142.7 339.6c0 0-0.2 0-0.3 0-0.6 0-1.2-0.2-1.3-0.8-0.2 0-0.2 0-0.4 0-0.6 0-1.1-0.3-1.3-0.9-0.2 0.2-0.4 0.2-0.6 0.2-0.5 0-1.1-0.5-1.3-1.1q-0.5 0.6-1 0.6c-0.8 0-1.5-0.8-1.5-1.5 0-0.8 0.7-1.5 1.5-1.5 0.5 0 1 0.5 1.2 1.1q0.6-0.5 1.1-0.6c0.6 0 1.2 0.4 1.3 1 0.2-0.2 0.4-0.2 0.6-0.2 0.5 0 1.1 0.2 1.3 0.7 0.2 0 0.2 0 0.4 0 0.3 0 0.9 0.2 1.1 0.6 0 0 0.2 0 0.3 0 0.4 0 0.8 0.2 1 0.4 0.3-0.2 0.5-0.4 0.9-0.4 0.2 0 0.5 0 0.7 0.2 0.2-0.4 0.8-0.8 1.3-0.8 0.6 0 1.1 0.4 1.3 0.8 0 0 0-0.2 0-0.4 0-0.7 0.7-1.5 1.5-1.5 0.7 0 1.5 0.8 1.5 1.5 0 0.7-0.8 1.5-1.5 1.5-0.6 0-1.1-0.4-1.3-0.8 0 0 0 0.2 0 0.4 0 0.7-0.7 1.5-1.5 1.5-0.2 0-0.5 0-0.7-0.2-0.2 0.4-0.8 0.7-1.3 0.7-0.4 0-0.8-0.1-0.9-0.3-0.4 0.2-0.6 0.3-1 0.3q-0.8 0-1.1-0.5z"/>
	<circle id="Layer" class="s2" cx="1091.7" cy="284.9" r="1.5"/>
	<circle id="Layer" class="s2" cx="1110.8" cy="305.6" r="1.5"/>
	<path id="Layer" class="s2" d="m1277.6 536.2c-0.7 0-1.5-0.8-1.5-1.5 0-0.8 0.6-1.5 1.3-1.5 0.2-0.4 0.4-0.7 0.8-0.9 0.1-0.6 0.7-0.9 1.3-0.9 0.1-0.6 0.7-1 1.2-1 0.8 0 1.5 0.8 1.5 1.5 0 0.8-0.5 1.5-1.3 1.5 0 0.4-0.2 0.5-0.5 0.7-0.2 0.6-0.8 1-1.3 1-0.2 0.7-0.8 1.3-1.5 1.1z"/>
	<circle id="Layer" class="s2" cx="1287" cy="565.7" r="1.5"/>
	<circle id="Layer" class="s2" cx="1101" cy="295.1" r="1.5"/>
	<path id="Layer" class="s2" d="m1264.8 509.2c0-0.7 0.8-1.5 1.5-1.5 0.4 0 1 0.2 1.1 0.6 0.2-0.2 0.4-0.2 0.6-0.2q0.8 0 1.1 0.5h0.2c0.4 0 0.7 0.2 0.9 0.4 0.2-0.2 0.6-0.4 0.9-0.4 0.8 0 1.5 0.8 1.5 1.5 0 0.8-0.7 1.5-1.5 1.5-0.3 0-0.7-0.2-0.9-0.4-0.2 0.2-0.5 0.4-0.9 0.4q-0.9 0-1.1-0.6h-0.2c-0.4 0-0.9-0.1-1.1-0.5-0.2 0.2-0.4 0.2-0.6 0.2-0.7 0-1.5-0.8-1.5-1.5z"/>
	<path id="Layer" class="s2" d="m1251.4 483.3c-0.8 0-1.5-0.7-1.5-1.5 0-0.5 0.5-1.1 1.1-1.2-0.2-0.4-0.4-0.8-0.4-1.2 0-0.7 0.8-1.4 1.5-1.4 0.7 0 1.5 0.7 1.5 1.4 0 0.6-0.6 1.2-1.1 1.3 0.2 0.4 0.3 0.8 0.3 1.1 0 1-0.7 1.5-1.4 1.5z"/>
	<path id="Layer" class="s2" d="m1185 382.4c0 0.2 0 0.6-0.2 0.8v0.2c0 0.5-0.3 1.1-0.7 1.3 0 0.2 0 0.2 0 0.3 0 0.8-0.7 1.5-1.5 1.5-0.7 0-1.4-0.7-1.4-1.5 0-0.5 0.3-1.1 0.7-1.3 0-0.1 0-0.1 0-0.3 0-0.2 0-0.6 0.2-0.8v-0.2c0-0.1 0.2-0.3 0.2-0.5v-0.2c0-0.2 0-0.4 0.2-0.5 0-0.2 0-0.2 0-0.2q0-0.9 0.5-1.1c0-0.6 0.4-1.1 0.9-1.3 0-0.8 0.8-1.3 1.5-1.3 0.2 0 0.2 0 0.2 0 0-0.2 0-0.2 0-0.4 0-0.7 0.7-1.5 1.5-1.5 0.7 0 1.4 0.8 1.4 1.5 0 0.7-0.7 1.5-1.4 1.5-0.2 0-0.2 0-0.2 0 0 0.2 0 0.2 0 0.4 0 0.5-0.4 1.1-0.9 1.2 0 0.4-0.2 0.8-0.4 1 0 0.2-0.2 0.3-0.2 0.5 0 0.2 0 0.2 0 0.2 0 0.2-0.2 0.4-0.2 0.6 0 0.1 0 0.1-0.2 0.1z"/>
	<circle id="Layer" class="s2" cx="1074.4" cy="275.3" r="1.5"/>
	<path id="Layer" class="s2" d="m1209.1 415.9c0-0.4 0.1-0.8 0.3-0.9-0.5 0-1.1-0.6-1.1-1.3 0-0.2 0.2-0.4 0.2-0.6-0.5-0.2-0.9-0.7-0.9-1.3 0-0.2 0.2-0.3 0.2-0.5-0.4-0.2-0.8-0.6-0.8-1.1 0-0.2 0.2-0.6 0.4-0.8-0.2-0.3-0.4-0.7-0.4-1.1 0-0.5 0.4-1.1 0.8-1.3-0.2-0.3-0.4-0.5-0.4-0.9 0-0.7 0.7-1.5 1.5-1.5-0.2-0.4-0.4-0.7-0.4-1.1 0-0.7 0.7-1.5 1.5-1.5 0.7 0 1.5 0.8 1.5 1.5 0 0.7-0.8 1.5-1.5 1.5 0.2 0.4 0.4 0.7 0.4 1.1 0 0.6-0.4 1.1-0.8 1.3 0.2 0.4 0.4 0.5 0.4 0.9 0 0.2-0.2 0.6-0.4 0.8 0.2 0.3 0.4 0.7 0.4 1.1 0 0.1-0.2 0.3-0.2 0.5 0.4 0.2 0.7 0.6 0.7 1.1 0 0.2-0.1 0.4-0.1 0.6 0.5 0.2 0.9 0.7 0.9 1.3 0 0.3-0.2 0.7-0.4 0.9 0.6 0 1.1 0.6 1.1 1.3 0 0.7-0.7 1.5-1.5 1.5-0.7 0-1.3-0.6-1.4-1.5z"/>
	<path id="Layer" class="s2" d="m1225.7 443.2c0-0.7 0.7-1.4 1.5-1.4 0 0 0.1 0 0.3 0-0.2-0.2-0.2-0.6-0.2-0.8 0-0.7 0.8-1.5 1.5-1.5 0.8 0 1.5 0.8 1.5 1.5 0 0.8-0.7 1.5-1.5 1.5 0 0-0.2 0-0.3 0 0.1 0.2 0.1 0.5 0.1 0.7 0 0.8-0.7 1.5-1.4 1.5-1 0-1.5-0.7-1.5-1.5z"/>
	<path id="Layer" class="s2" d="m1240.8 466.9c0-0.8 0.8-1.5 1.5-1.5 0.2 0 0.2 0 0.4 0 0-0.9 0.7-1.5 1.5-1.5 0.1 0 0.3 0.2 0.5 0.2 0-0.7 0.8-1.5 1.5-1.5 0.7 0 1.5 0.8 1.5 1.5 0 0.8-0.8 1.5-1.5 1.5-0.2 0-0.4-0.2-0.6-0.2 0 0.7-0.7 1.5-1.4 1.5-0.2 0-0.2 0-0.4 0 0 0.9-0.8 1.5-1.5 1.5-0.9 0-1.5-0.6-1.5-1.5z"/>
	<path id="Layer" class="s2" d="m1117.8 317c0.2 0.2 0.4 0.4 0.4 0.8 0 0.7-0.8 1.5-1.5 1.5-0.8 0-1.5-0.8-1.5-1.5 0-0.8 0.6-1.5 1.3-1.5-0.2-0.2-0.4-0.4-0.4-0.7 0-0.2 0-0.2 0-0.4q-0.3 0.6-1.1 0.6c-0.7 0-1.5-0.8-1.5-1.5 0-0.8 0.8-1.5 1.5-1.5 0.8 0 1.5 0.7 1.5 1.5 0 0.2 0 0.2 0 0.3q0.3-0.5 1.1-0.5c0.7 0 1.5 0.5 1.5 1.3q0.2-0.6 1.1-0.6c0.7 0 1.3 0.6 1.5 1.3 0.1-0.7 0.7-1.3 1.4-1.3 0.8 0 1.5 0.8 1.5 1.5 0 0.7-0.7 1.5-1.5 1.5-0.7 0-1.3-0.6-1.4-1.3-0.2 0.7-0.8 1.3-1.5 1.3-0.7 0-1.5-0.6-1.5-1.3-0.2 0.4-0.5 0.5-0.9 0.5z"/>
	<path id="Layer" class="s2" d="m1128.1 326.1c-0.3 0.2-0.5 0.2-0.7 0.2-0.7 0-1.5-0.8-1.5-1.5 0-0.2 0-0.2 0-0.2-0.3 0.2-0.5 0.4-0.9 0.4-0.7 0-1.5-0.8-1.5-1.5 0-0.7 0.8-1.5 1.5-1.5 0.7 0 1.5 0.8 1.5 1.5 0 0.2 0 0.2 0 0.2 0.3-0.2 0.5-0.4 0.9-0.4 0.7 0 1.3 0.4 1.5 1.1 0.3-0.2 0.5-0.2 0.7-0.2 0.6 0 1.1 0.4 1.3 1 0.2 0 0.4-0.2 0.7-0.2 0.4 0 1 0.2 1.2 0.5 0.1-0.3 0.7-0.5 1.1-0.5 0.5 0 1.1 0.4 1.3 0.7 0.1-0.7 0.7-1.3 1.4-1.3 0.8 0 1.5 0.8 1.5 1.5 0 0.8-0.7 1.5-1.5 1.5-0.5 0-1.1-0.4-1.3-0.7-0.1 0.7-0.7 1.2-1.4 1.2-0.4 0-1-0.1-1.1-0.5-0.2 0.4-0.8 0.5-1.2 0.5-0.5 0-1.1-0.3-1.3-0.9-0.1 0-0.3 0.2-0.7 0.2-0.7 0-1.3-0.5-1.5-1.1z"/>
	<circle id="Layer" class="s2" cx="1289.8" cy="586.6" r="1.5"/>
	<circle id="Layer" class="s2" cx="1279.1" cy="553.9" r="1.5"/>
	<circle id="Layer" class="s2" cx="1254.1" cy="494.8" r="1.5"/>
	<path id="Layer" class="s2" d="m1062.4 279.2c-0.8 0-1.5-0.8-1.5-1.5 0-0.4 0.2-0.7 0.3-0.9-0.1 0.2-0.5 0.2-0.7 0.2-0.7 0-1.5-0.8-1.5-1.5 0-0.4 0-0.6 0.2-0.8-0.9 0-1.5-0.7-1.5-1.4 0-0.8 0.8-1.5 1.5-1.5 0.8 0 1.5 0.7 1.5 1.5 0 0.3 0 0.5-0.2 0.7 0.9 0 1.5 0.7 1.5 1.5 0 0.3-0.2 0.7-0.4 0.9 0.2-0.2 0.6-0.2 0.8-0.2 0.5 0 1.1 0.4 1.3 0.8 0.1-0.6 0.7-1 1.2-1 0.8 0 1.5 0.8 1.5 1.5 0 0.7-0.7 1.5-1.5 1.5-0.5 0-1.1-0.4-1.3-0.8-0.1 0.6-0.7 1-1.2 1z"/>
	<path id="Layer" class="s2" d="m1047.6 269.7v-0.1c-0.6 0-1.1-0.6-1.1-1.3 0-0.2 0-0.6 0.2-0.8-0.4-0.3-0.8-0.7-0.8-1.3 0-0.7 0.8-1.4 1.5-1.4 0.7 0 1.5 0.7 1.5 1.4 0 0.2 0 0.6-0.2 0.8 0.4 0.3 0.7 0.7 0.7 1.3v0.2c0.6 0 1.1 0.5 1.1 1.2 0 0.4-0.1 0.8-0.3 1 0.7 0 1.4 0.7 1.4 1.4 0 0.8-0.7 1.5-1.4 1.5-0.8 0-1.5-0.7-1.5-1.5 0-0.3 0.2-0.7 0.4-0.9-0.8 0-1.5-0.5-1.5-1.5z"/>
	<path id="Layer" class="s2" d="m1093.4 301c0 0.7-0.7 1.4-1.5 1.4-0.7 0-1.5-0.7-1.5-1.4 0-0.6 0.2-1.1 0.8-1.3-0.2-0.2-0.4-0.6-0.4-0.9 0-0.6 0.6-1.2 1.1-1.3-0.2-0.4-0.4-0.6-0.4-1 0-0.7 0.8-1.4 1.5-1.4 0.8 0 1.5 0.7 1.5 1.4 0 0.6-0.6 1.1-1.1 1.3 0.2 0.4 0.4 0.6 0.4 1 0 0.5-0.2 1.1-0.8 1.2 0.2 0.2 0.4 0.6 0.4 1z"/>
	<path id="Layer" class="s2" d="m1075.8 290.3c0-0.8 0.8-1.5 1.5-1.5h0.2c0.2-0.6 0.8-0.9 1.3-0.9 0.7 0 1.5 0.7 1.5 1.4 0 0.8-0.8 1.5-1.5 1.5-0.2 0-0.2 0-0.2 0-0.2 0.6-0.7 0.9-1.3 0.9-0.7 0-1.5-0.7-1.5-1.4z"/>
	<circle id="Layer" class="s2" cx="1122.6" cy="334.6" r="1.5"/>
	<circle id="Layer" class="s2" cx="1245.3" cy="578.7" r="1.5"/>
	<circle id="Layer" class="s2" cx="1233.3" cy="536.5" r="1.5"/>
	<circle id="Layer" class="s2" cx="1219.4" cy="497.6" r="1.5"/>
	<circle id="Layer" class="s2" cx="1204.4" cy="461.9" r="1.5"/>
	<circle id="Layer" class="s2" cx="1139" cy="353.8" r="1.5"/>
	<circle id="Layer" class="s2" cx="1155.5" cy="376" r="1.5"/>
	<circle id="Layer" class="s2" cx="1172.1" cy="401.3" r="1.5"/>
	<circle id="Layer" class="s2" cx="1188.5" cy="429.9" r="1.5"/>
	<circle id="Layer" class="s2" cx="1195" cy="481.5" r="1.5"/>
	<circle id="Layer" class="s2" cx="1179.5" cy="444.9" r="1.5"/>
	<circle id="Layer" class="s2" cx="1163.2" cy="412.2" r="1.5"/>
	<circle id="Layer" class="s2" cx="1209.4" cy="522.1" r="1.5"/>
	<circle id="Layer" class="s2" cx="1222.2" cy="566.3" r="1.5"/>
	<circle id="Layer" class="s2" cx="1146.6" cy="383.2" r="1.5"/>
	<circle id="Layer" class="s2" cx="1081" cy="300.8" r="1.5"/>
	<circle id="Layer" class="s2" cx="1065.9" cy="286.9" r="1.5"/>
	<circle id="Layer" class="s2" cx="1113.2" cy="335.9" r="1.5"/>
	<circle id="Layer" class="s2" cx="1129.8" cy="357.9" r="1.5"/>
	<circle id="Layer" class="s2" cx="1096.9" cy="317" r="1.5"/>
	<circle id="Layer" class="s2" cx="1117.4" cy="305.2" r="1.5"/>
	<circle id="Layer" class="s2" cx="1106.7" cy="317.8" r="1.5"/>
	<circle id="Layer" class="s2" cx="1239.5" cy="512.9" r="1.5"/>
	<circle id="Layer" class="s2" cx="1252.7" cy="550.2" r="1.5"/>
	<circle id="Layer" class="s2" cx="1225.1" cy="478.5" r="1.5"/>
	<circle id="Layer" class="s2" cx="1263.9" cy="590.5" r="1.5"/>
	<path id="Layer" class="s2" d="m1102.3 307.8c0-0.5 0.3-1.1 0.7-1.3-0.5 0-0.9-0.4-1.1-0.7 0 0.2 0 0.2 0 0.3 0 0.8-0.7 1.5-1.5 1.5-0.7 0-1.5-0.7-1.5-1.5 0-0.3 0.2-0.7 0.4-0.9-0.4-0.3-0.7-0.7-0.7-1.3 0-0.7 0.7-1.5 1.5-1.5 0.7 0 1.4 0.8 1.4 1.5 0 0.4-0.2 0.8-0.3 1 0.1 0 0.3 0.3 0.5 0.5 0-0.2 0-0.2 0-0.4 0-0.7 0.8-1.4 1.5-1.4 0.7 0 1.5 0.7 1.5 1.4 0 0.6-0.4 1.1-0.8 1.3 0.8 0.2 1.3 0.8 1.3 1.5 0 0.7-0.7 1.5-1.5 1.5-0.7 0-1.2-0.8-1.4-1.5z"/>
	<circle id="Layer" class="s2" cx="1209.8" cy="447.3" r="1.5"/>
	<path id="Layer" class="s2" d="m1026.9 254.4c0 0.4-0.2 0.8-0.4 0.9v0.2c0 0.4 0 0.6-0.2 0.8 0 0 0 0 0 0.1 0 0.4-0.1 1-0.5 1.2 0.2 0.1 0.2 0.3 0.2 0.5 0 0.7-0.8 1.5-1.5 1.5-0.8 0-1.5-0.8-1.5-1.5 0-0.4 0.2-0.9 0.6-1.1-0.2-0.2-0.2-0.4-0.2-0.6 0-0.3 0-0.5 0.2-0.7 0 0 0 0 0-0.2 0-0.3 0.1-0.7 0.3-0.9v-0.2c0-0.7 0.8-1.5 1.5-1.5 0.8 0 1.3 0.8 1.5 1.5z"/>
	<path id="Layer" class="s2" d="m1149 351.6c0-0.7 0.8-1.5 1.5-1.5 0.4 0 0.7 0.2 0.9 0.4q0.3-0.6 1.1-0.6c0.4 0 0.8 0.2 0.9 0.4 0.2-0.2 0.4-0.2 0.6-0.2 0.4 0 0.7 0.2 0.9 0.4h0.2c0.2 0 0.6 0 0.7 0.2h0.2c0.2 0 0.4 0.2 0.6 0.2 0.2-0.2 0.5-0.2 0.7-0.2 0.2 0 0.2 0 0.4 0q0.3-0.6 1.1-0.6c0.2 0 0.4 0.2 0.6 0.2 0.1-0.7 0.7-1.3 1.4-1.3 0.8 0 1.5 0.7 1.5 1.5 0 0.7-0.7 1.5-1.5 1.5-0.1 0-0.3-0.2-0.5-0.2-0.2 0.7-0.8 1.3-1.5 1.3-0.2 0-0.2 0-0.4 0q-0.2 0.5-1.1 0.5c-0.2 0-0.3-0.2-0.5-0.2-0.2 0.2-0.6 0.2-0.8 0.2-0.2 0-0.5 0-0.7-0.2 0 0 0 0-0.2 0-0.4 0-0.7-0.1-0.9-0.3h-0.2c-0.4 0-0.7-0.2-0.9-0.4-0.2 0.2-0.4 0.2-0.6 0.2-0.3 0-0.7-0.2-0.9-0.4q-0.3 0.6-1.1 0.6c-0.7 0-1.5-0.8-1.5-1.5z"/>
	<circle id="Layer" class="s2" cx="1193.9" cy="419" r="1.5"/>
	<circle id="Layer" class="s2" cx="1177.6" cy="393.9" r="1.5"/>
	<path id="Layer" class="s2" d="m1072.7 285.6c-0.7 0-1.5-0.7-1.5-1.4 0-0.8 0.8-1.5 1.5-1.5 0.4 0 0.6 0 0.7 0.2 0.2-0.8 0.6-1.1 1.3-1.1 0.8 0 1.5 0.7 1.5 1.4 0 0.8-0.7 1.5-1.5 1.5-0.3 0-0.5 0-0.7-0.2-0.2 0.6-0.7 1.1-1.3 1.1z"/>
	<circle id="Layer" class="s2" cx="1245.6" cy="356.4" r="1.5"/>
	<circle id="Layer" class="s2" cx="1249.7" cy="372.1" r="1.5"/>
	<circle id="Layer" class="s2" cx="1254.3" cy="387.8" r="1.5"/>
	<circle id="Layer" class="s2" cx="1259.1" cy="403.7" r="1.5"/>
	<circle id="Layer" class="s2" cx="1264.1" cy="419.8" r="1.5"/>
	<path id="Layer" class="s2" d="m1268 436c0-0.7 0.7-1.5 1.5-1.5 0.7 0 1.3 0.6 1.5 1.3l-1 1.5c-0.2 0.2-0.3 0.2-0.5 0.2-0.8 0-1.5-0.7-1.5-1.5z"/>
	<circle id="Layer" class="s2" cx="1251.4" cy="413.7" r="1.5"/>
	<circle id="Layer" class="s2" cx="1240.3" cy="382.4" r="1.5"/>
	<circle id="Layer" class="s2" cx="1245.6" cy="398" r="1.5"/>
	<circle id="Layer" class="s2" cx="1263.4" cy="446.2" r="1.5"/>
	<circle id="Layer" class="s2" cx="1264.7" cy="376.5" r="1.5"/>
	<circle id="Layer" class="s2" cx="1257.3" cy="429.7" r="1.5"/>
	<path id="Layer" class="s2" d="m1195.8 328.3c-0.6 0-1.2-0.4-1.3-0.9h2.7c-0.2 0.5-0.7 0.9-1.4 0.9z"/>
	<path id="Layer" class="s2" d="m1225.1 337.7h2.8c-0.2 0.6-0.7 1-1.3 1-0.7 0-1.1-0.6-1.5-1z"/>
	<path id="Layer" class="s2" d="m1240.7 342h2.7c-0.2 0.5-0.7 0.9-1.3 0.9-0.5 0-1.1-0.4-1.4-0.9z"/>
	<path id="Layer" class="s2" d="m1256.5 345.9h2.8c-0.2 0.5-0.7 0.9-1.3 0.9-0.7 0-1.3-0.6-1.5-0.9z"/>
	<circle id="Layer" class="s2" cx="1261" cy="360.5" r="1.5"/>
	<path id="Layer" class="s2" d="m1179.1 321.5h2.8c-0.2 0.5-0.7 0.9-1.3 0.9-0.7 0-1.3-0.4-1.5-0.9z"/>
	<circle id="Layer" class="s2" cx="1230.5" cy="351.8" r="1.5"/>
	<path id="Layer" class="s2" d="m1209.6 332.7h2.8c-0.2 0.6-0.8 1-1.3 1-0.6 0-1.1-0.4-1.5-1z"/>
	<circle id="Layer" class="s2" cx="1272.8" cy="408.7" r="1.5"/>
	<circle id="Layer" class="s2" cx="1268.5" cy="392.4" r="1.5"/>
	<path id="Layer" class="s2" d="m1273.9 349.9c-0.6 0-1.1-0.3-1.3-0.9h2.8c-0.2 0.6-0.8 1.1-1.5 0.9z"/>
	<circle id="Layer" class="s2" cx="1279.8" cy="380.4" r="1.5"/>
	<circle id="Layer" class="s2" cx="1276.7" cy="364.2" r="1.5"/>
	<circle id="Layer" class="s2" cx="1219.4" cy="384.5" r="1.5"/>
	<circle id="Layer" class="s2" cx="1233.6" cy="415.1" r="1.5"/>
	<path id="Layer" class="s2" d="m1165.1 315.9c-0.6 0-1.1-0.3-1.3-0.9h2.8c-0.2 0.6-0.8 0.9-1.5 0.9z"/>
	<circle id="Layer" class="s2" cx="1226.4" cy="399.6" r="1.5"/>
	<circle id="Layer" class="s2" cx="1265" cy="482" r="1.5"/>
	<circle id="Layer" class="s2" cx="1249" cy="447.5" r="1.5"/>
	<circle id="Layer" class="s2" cx="1256.9" cy="464.5" r="1.5"/>
	<circle id="Layer" class="s2" cx="1241.2" cy="431" r="1.5"/>
	<circle id="Layer" class="s2" cx="1212.8" cy="369.7" r="1.5"/>
	<circle id="Layer" class="s2" cx="1206.5" cy="355.1" r="1.5"/>
	<circle id="Layer" class="s2" cx="1200.7" cy="340.7" r="1.5"/>
	<circle id="Layer" class="s2" cx="1226.4" cy="376.4" r="1.5"/>
	<circle id="Layer" class="s2" cx="1259.3" cy="455.6" r="1.5"/>
	<circle id="Layer" class="s2" cx="1273" cy="500.3" r="1.5"/>
	<circle id="Layer" class="s2" cx="1238.8" cy="407" r="1.5"/>
	<circle id="Layer" class="s2" cx="1245.3" cy="422.9" r="1.5"/>
	<circle id="Layer" class="s2" cx="1266.3" cy="472.6" r="1.5"/>
	<path id="Layer" class="s2" d="m1269.7 464.3c-0.8-0.2-1.3-0.7-1.3-1.5 0-0.7 0.7-1.5 1.4-1.5 0.4 0 1 0.2 1.2 0.6z"/>
	<circle id="Layer" class="s2" cx="1252.3" cy="439" r="1.5"/>
	<circle id="Layer" class="s2" cx="1220.9" cy="361.4" r="1.5"/>
	<path id="Layer" class="s2" d="m1273.7 488.7c0.2 0 0.6 0 0.8 0.2l-1.5 2.4c-0.4-0.2-0.8-0.8-0.8-1.3 0-0.8 0.6-1.5 1.5-1.3z"/>
	<circle id="Layer" class="s2" cx="1235.1" cy="367.1" r="1.5"/>
	<circle id="Layer" class="s2" cx="1215.5" cy="346.4" r="1.5"/>
	<circle id="Layer" class="s2" cx="1232.5" cy="391.7" r="1.5"/>
	<path id="Layer" class="s2" d="m668.8 185.1c0 0.8-0.7 1.5-1.5 1.5-0.1 0-0.1 0-0.3 0q-0.3 0.6-1.1 0.6c0 0-0.2 0-0.4 0q-0.3 0.5-1.1 0.5c-0.2 0-0.4-0.2-0.6-0.2-0.3 0.4-0.7 0.8-1.3 0.8-0.1 0-0.3-0.2-0.5-0.2-0.2 0.7-0.6 1.1-1.3 1.1-0.4 0-0.6 0-0.7-0.2 0 0.7-0.8 1.5-1.5 1.5-0.8 0-1.5-0.8-1.5-1.5 0-0.7 0.7-1.5 1.5-1.5 0.3 0 0.5 0 0.7 0.2 0-0.7 0.8-1.5 1.5-1.5 0.2 0 0.4 0.2 0.5 0.2 0.2-0.7 0.6-1.1 1.3-1.1 0.2 0 0.4 0.2 0.6 0.2 0.4-0.4 0.7-0.7 1.3-0.7 0 0 0.2 0 0.4 0q0.2-0.6 1.1-0.6c0.2 0 0.2 0 0.3 0q0.3-0.6 1.1-0.6c0.4 0 0.8 0.2 1 0.4h1.6q-0.2 0.9-1.1 1.1z"/>
	<path id="Layer" class="s2" d="m378.6 279.4h2.7c-0.1 0.5-0.7 0.9-1.3 0.9-0.5 0-1.1-0.4-1.4-0.9z"/>
	<path id="Layer" class="s2" d="m361.8 288h2.7c-0.2 0.6-0.7 1-1.3 1-0.5 0-1.1-0.4-1.4-1z"/>
	<path id="Layer" class="s2" d="m395.9 270.7h2.8c-0.2 0.5-0.7 0.9-1.3 0.9-0.5 0-1.1-0.6-1.5-0.9z"/>
	<path id="Layer" class="s2" d="m313.9 311.1h2.8c-0.2 0.6-0.8 1-1.3 1-0.6 0-1.1-0.4-1.5-1z"/>
	<path id="Layer" class="s2" d="m329.6 303.9h2.8c-0.2 0.6-0.8 1-1.3 1-0.8 0-1.3-0.4-1.5-1z"/>
	<path id="Layer" class="s2" d="m414.2 261.4h2.8c-0.2 0.6-0.7 1-1.3 1-0.7 0-1.3-0.4-1.5-1z"/>
	<path id="Layer" class="s2" d="m346.8 297.1c-0.6 0-1.1-0.4-1.3-0.9h2.8c-0.2 0.5-0.8 0.9-1.5 0.9z"/>
	<path id="Layer" class="s2" d="m495.3 225.2h2.8c-0.2 0.6-0.7 0.9-1.3 0.9-0.7 0-1.3-0.3-1.5-0.9z"/>
	<path id="Layer" class="s2" d="m473.5 234.1h2.8c-0.2 0.5-0.7 0.9-1.3 0.9-0.5 0-1.1-0.5-1.5-0.9z"/>
	<path id="Layer" class="s2" d="m433.1 252.4h2.7c-0.1 0.5-0.7 0.9-1.2 0.9-0.6 0-1.2-0.6-1.5-0.9z"/>
	<path id="Layer" class="s2" d="m454.3 244.1c-0.5 0-1.1-0.4-1.3-1h2.6c-0.2 0.6-0.5 1-1.3 1z"/>
	<path id="Layer" class="s2" d="m255.3 335c-0.1 0.5-0.7 0.9-1.3 0.9-0.5 0-1.1-0.4-1.3-0.9z"/>
	<path id="Layer" class="s2" d="m172.9 353.1h2.8c-0.2 0.5-0.7 0.9-1.3 0.9-0.7 0-1.3-0.4-1.5-0.9z"/>
	<path id="Layer" class="s2" d="m205.5 347.3h2.7c-0.2 0.6-0.7 1-1.3 1-0.5 0-1.1-0.4-1.4-1z"/>
	<path id="Layer" class="s2" d="m156.1 355.5h2.8c-0.2 0.5-0.7 0.9-1.3 0.9-0.7 0-1.3-0.6-1.5-0.9z"/>
	<path id="Layer" class="s2" d="m189.4 350.5h2.8c-0.2 0.5-0.8 0.9-1.3 0.9-0.8 0-1.3-0.4-1.5-0.9z"/>
	<path id="Layer" class="s2" d="m138.9 357.3h2.8c-0.2 0.6-0.7 0.9-1.3 0.9-0.5 0-1.1-0.5-1.5-0.9z"/>
	<path id="Layer" class="s2" d="m298.6 318h2.7c-0.1 0.5-0.7 0.9-1.3 0.9-0.7 0-1.2-0.4-1.4-0.9z"/>
	<path id="Layer" class="s2" d="m141.3 372.1c0 0.2 0 0.2 0 0.2l-0.9-1.5c0.6 0.4 0.9 0.7 0.9 1.3z"/>
	<path id="Layer" class="s2" d="m284.5 325c-0.5 0-1.1-0.4-1.3-0.9h2.8c-0.2 0.7-0.7 1.1-1.5 0.9z"/>
	<path id="Layer" class="s2" d="m222.8 344.6c-0.5 0-1.1-0.4-1.3-1h2.8c-0.2 0.6-0.7 1.2-1.5 1z"/>
	<path id="Layer" class="s2" d="m269.2 330.7c-0.6 0-1.1-0.4-1.3-0.9h2.8c-0.2 0.5-0.8 1.1-1.5 0.9z"/>
	<path id="Layer" class="s2" d="m238.3 340.5c-0.5 0-1.1-0.4-1.3-0.9h2.8c-0.2 0.5-0.5 0.9-1.5 0.9z"/>
	<path id="Layer" class="s2" d="m985.9 230h2.7c-0.1 0.6-0.7 0.9-1.3 0.9-0.5 0-1.1-0.3-1.4-0.9z"/>
	<path id="Layer" class="s2" d="m1007.1 239.1h2.8c-0.2 0.5-0.8 0.9-1.3 0.9-0.7 0-1.3-0.6-1.5-0.9z"/>
	<path id="Layer" class="s2" d="m1046.7 257.4h2.7c-0.2 0.5-0.7 0.9-1.3 0.9-0.7 0-1.3-0.4-1.4-0.9z"/>
	<path id="Layer" class="s2" d="m1027.3 248.1h2.7c-0.2 0.6-0.7 1-1.3 1-0.5 0-1.1-0.4-1.4-1z"/>
	<path id="Layer" class="s2" d="m941.7 216.2c0.2 0.2 0.4 0.5 0.4 0.9 0 0.5-0.2 0.9-0.4 1.1 0.2 0.2 0.2 0.4 0.2 0.6 0 0.7-0.7 1.4-1.5 1.4-0.7 0-1.5-0.7-1.5-1.4 0-0.6 0.2-1 0.4-1.2-0.2-0.1-0.2-0.3-0.2-0.5 0-0.7 0.6-1.5 1.3-1.5-0.2-0.2-0.4-0.4-0.4-0.5h2.8q-0.3 0.8-1.1 1.1z"/>
	<path id="Layer" class="s2" d="m963.9 221.3h2.8c-0.2 0.6-0.8 1-1.3 1-0.8 0-1.3-0.4-1.5-1z"/>
	<path id="Layer" class="s2" d="m916.8 205.4h2.6c-0.2 0.6-0.8 1-1.3 1-0.6 0-1.1-0.4-1.3-1z"/>
	<path id="Layer" class="s2" d="m1067.7 266.4c-0.2 0.6-0.7 0.9-1.3 0.9-0.5 0-1.1-0.3-1.3-0.9z"/>
	<path id="Layer" class="s2" d="m568.9 201.4c-0.2 0.5-0.8 0.9-1.3 0.9-0.6 0-1.1-0.4-1.3-0.9z"/>
	<path id="Layer" class="s2" d="m1116.5 292.5h2.8c-0.2 0.5-0.8 0.9-1.3 0.9-0.8 0-1.3-0.4-1.5-0.9z"/>
	<path id="Layer" class="s2" d="m1099.9 284.2h2.7c-0.2 0.5-0.7 0.9-1.3 0.9-0.5 0-1.1-0.4-1.4-0.9z"/>
	<path id="Layer" class="s2" d="m1082.9 275.5h2.7c-0.2 0.5-0.7 0.9-1.3 0.9-0.7 0-1.3-0.4-1.4-0.9z"/>
	<path id="Layer" class="s2" d="m1135.2 300.4c-0.2 0.6-0.8 0.9-1.3 0.9-0.6 0-1.2-0.3-1.3-0.9z"/>
	<path id="Layer" class="s2" d="m729.8 182.5h0.4c0 0.2-0.2 0.2-0.2 0.4 0.2 0.2 0.2 0.4 0.2 0.6 0 0.3 0 0.5-0.2 0.7 0 0.2-0.2 0.2-0.2 0.4 0 0.2-0.2 0.2-0.2 0.3 0 0.2-0.2 0.2-0.2 0.4 0 0.2 0 0.6-0.2 0.8 0 0.1 0 0.1 0 0.3 0 0.4-0.1 0.8-0.3 0.9 0.2 0.2 0.2 0.4 0.2 0.6 0 0.6-0.4 1.1-0.8 1.3q0.6 0.5 0.6 1.1c0 0.7-0.8 1.5-1.5 1.5-0.7 0-1.5-0.8-1.5-1.5 0-0.6 0.4-1.1 0.8-1.3q-0.6-0.5-0.6-1.1c0-0.4 0.2-0.7 0.4-0.9-0.2-0.2-0.2-0.4-0.2-0.6 0-0.2 0-0.5 0.2-0.7 0-0.2 0-0.2 0-0.4 0-0.4 0-0.5 0.2-0.7 0-0.2 0-0.6 0.1-0.8 0-0.2 0-0.3 0.2-0.5 0-0.2 0.2-0.2 0.2-0.4 0-0.2 0.2-0.2 0.2-0.4 0-0.1 0-0.1 0-0.1h0.2c0.2-0.4 0.7-0.6 1.1-0.6 0.4 0 0.9 0.2 1.1 0.6z"/>
	<path id="Layer" class="s2" d="m616.9 192c-0.4 0-0.9-0.2-1.1-0.6 0.2 0.2 0.4 0.6 0.4 0.9 0 0.8-0.8 1.5-1.5 1.5-0.6 0-1.1-0.2-1.3-0.7 0 0.2 0 0.2 0 0.3 0 0.8-0.7 1.5-1.5 1.5-0.7 0-1.5-0.7-1.5-1.5 0-0.7 0.8-1.4 1.5-1.4 0.6 0 1.1 0.1 1.3 0.7 0-0.2 0-0.2 0-0.4 0-0.7 0.8-1.4 1.5-1.4 0.4 0 0.7 0.1 0.9 0.3 0-0.2-0.2-0.2-0.2-0.3h2.8c-0.2 0.5-0.7 0.9-1.3 1.1z"/>
	<path id="Layer" class="s2" d="m591.6 195.1h2.8c-0.2 0.6-0.8 0.9-1.3 0.9-0.6 0-1.1-0.5-1.5-0.9z"/>
	<path id="Layer" class="s2" d="m865.8 192.5h2.7c-0.1 0.6-0.7 0.9-1.2 0.9-0.6 0-1.2-0.5-1.5-0.9z"/>
	<path id="Layer" class="s2" d="m892.9 200.8q0.6 0.3 0.6 1.1c0 0.8-0.7 1.5-1.5 1.5-0.7 0-1.5-0.7-1.5-1.5 0-0.7 0.6-1.4 1.3-1.4-0.3-0.2-0.5-0.6-0.5-0.8h2.7c-0.1 0.6-0.7 0.9-1.1 1.1z"/>
	<path id="Layer" class="s2" d="m1150.9 308c-0.2 0.5-0.8 0.9-1.3 0.9-0.6 0-1.1-0.4-1.3-0.9z"/>
	<circle id="Layer" class="s2" cx="1298.5" cy="587" r="1.5"/>
	<path id="Layer" class="s2" d="m1288.1 557.6c-0.1-0.4-0.3-0.7-0.3-1.1 0-0.7 0.7-1.5 1.4-1.5 0.8 0 1.5 0.8 1.5 1.5 0 0.4-0.2 0.9-0.5 1.1 0.2 0.4 0.3 0.7 0.3 1.1 0 0.7-0.7 1.5-1.4 1.5-0.8 0-1.5-0.8-1.5-1.5q0-0.8 0.5-1.1z"/>
	<path id="Layer" class="s2" d="m1218.7 424c-0.6-0.2-1-0.7-1-1.3 0-0.3 0.2-0.9 0.6-1.1-0.4-0.4-0.8-0.7-0.8-1.3 0-0.7 0.6-1.5 1.3-1.5-0.3-0.3-0.7-0.7-0.7-1.2 0-0.8 0.7-1.5 1.5-1.5 0.7 0 1.5 0.7 1.5 1.5 0 0.7-0.6 1.4-1.3 1.4 0.3 0.4 0.7 0.8 0.7 1.3 0 0.4-0.2 0.9-0.5 1.1 0.3 0.4 0.7 0.8 0.7 1.3 0 0.4-0.2 0.8-0.4 0.9 0.6 0.2 0.9 0.8 0.9 1.3 0 0.4-0.1 0.8-0.3 1 0.9 0 1.5 0.7 1.5 1.4 0 0.8-0.8 1.5-1.5 1.5-0.8 0-1.5-0.7-1.5-1.5 0-0.3 0.2-0.7 0.4-0.9-1 0-1.5-0.7-1.5-1.5 0-0.3 0.2-0.7 0.4-0.9z"/>
	<circle id="Layer" class="s2" cx="1231.8" cy="445.8" r="1.5"/>
	<circle id="Layer" class="s2" cx="1148.5" cy="324.1" r="1.5"/>
	<circle id="Layer" class="s2" cx="1140.5" cy="311.9" r="1.5"/>
	<path id="Layer" class="s2" d="m1234.2 452.1c0-0.7 0.7-1.5 1.5-1.5q0.8 0 1.1 0.6 0.5-0.6 1.1-0.6c0.7 0 1.5 0.8 1.5 1.5 0 0.7-0.8 1.5-1.5 1.5q-0.9 0-1.1-0.6-0.6 0.6-1.1 0.6c-0.8 0-1.3-0.8-1.5-1.5z"/>
	<circle id="Layer" class="s2" cx="1133.3" cy="314.8" r="1.5"/>
	<circle id="Layer" class="s2" cx="1124.8" cy="303.2" r="1.5"/>
	<path id="Layer" class="s2" d="m1283.7 548.4c-0.7 0-1.5-0.8-1.5-1.5 0-0.4 0.2-0.9 0.6-1.1-0.2-0.2-0.2-0.4-0.2-0.6 0-0.3 0.2-0.9 0.5-1.1v-0.2c0-0.7 0.8-1.5 1.5-1.5 0.8 0 1.5 0.8 1.5 1.5 0 0.4-0.2 1-0.6 1.1v0.2c0 0.4-0.1 0.9-0.5 1.1 0.2 0.2 0.2 0.4 0.2 0.6 0 0.9-0.8 1.5-1.5 1.5z"/>
	<circle id="Layer" class="s2" cx="1238.1" cy="445.4" r="1.5"/>
	<circle id="Layer" class="s2" cx="1257.5" cy="481.3" r="1.5"/>
	<circle id="Layer" class="s2" cx="1228.6" cy="428.6" r="1.5"/>
	<circle id="Layer" class="s2" cx="1171" cy="327.4" r="1.5"/>
	<circle id="Layer" class="s2" cx="1185.2" cy="354.4" r="1.5"/>
	<circle id="Layer" class="s2" cx="1201.5" cy="382.6" r="1.5"/>
	<circle id="Layer" class="s2" cx="1193.2" cy="368.4" r="1.5"/>
	<circle id="Layer" class="s2" cx="1230.3" cy="422.4" r="1.5"/>
	<circle id="Layer" class="s2" cx="1238.8" cy="438.6" r="1.5"/>
	<circle id="Layer" class="s2" cx="1222" cy="406.7" r="1.5"/>
	<circle id="Layer" class="s2" cx="1247.7" cy="455.2" r="1.5"/>
	<circle id="Layer" class="s2" cx="1256.4" cy="473" r="1.5"/>
	<circle id="Layer" class="s2" cx="1213.9" cy="391.5" r="1.5"/>
	<circle id="Layer" class="s2" cx="1192.2" cy="348.3" r="1.5"/>
	<circle id="Layer" class="s2" cx="1206.3" cy="376.9" r="1.5"/>
	<path id="Layer" class="s2" d="m1289.1 550.2c0-0.2 0-0.2 0-0.4 0-0.5 0.5-1.1 1.1-1.3z"/>
	<path id="Layer" class="s2" d="m1294.2 567.4c0.6 0.2 1 0.7 1 1.3 0 0.7-0.8 1.5-1.5 1.5-0.8 0-1.5-0.8-1.5-1.5 0-0.6 0.4-1.1 0.9-1.3-0.5-0.2-0.9-0.7-0.9-1.3 0-0.7 0.7-1.5 1.5-1.5 0.7 0 1.5 0.8 1.5 1.5 0 0.6-0.4 1.1-1 1.3z"/>
	<circle id="Layer" class="s2" cx="1199.1" cy="362.5" r="1.5"/>
	<circle id="Layer" class="s2" cx="1185.8" cy="334.4" r="1.5"/>
	<circle id="Layer" class="s2" cx="1155.8" cy="319.8" r="1.5"/>
	<circle id="Layer" class="s2" cx="1163.4" cy="332.7" r="1.5"/>
	<path id="Layer" class="s2" d="m1175.3 363.6c-0.4 0-0.6 0-0.8-0.2 0.2 0.2 0.2 0.4 0.2 0.6 0 0.7-0.7 1.4-1.5 1.4 0 0.6-0.5 1-1.1 1.2-0.2 0.3-0.5 0.5-0.9 0.7-0.2 0.2-0.4 0.4-0.8 0.4-0.1 0-0.3 0.2-0.5 0.2-0.2 0.1-0.4 0.3-0.7 0.3q-0.3 0.6-1.2 0.6c-0.2 0-0.2 0-0.3 0-0.2 0.7-0.8 1.3-1.5 1.3-0.7 0-1.5-0.8-1.5-1.5 0-0.7 0.8-1.5 1.5-1.5 0.2 0 0.2 0 0.4 0 0-0.7 0.5-1.3 1.2-1.3 0.2-0.4 0.6-0.5 1-0.5 0.2 0 0.4-0.2 0.5-0.2 0.2 0 0.2-0.2 0.4-0.2 0.2-0.2 0.4-0.4 0.7-0.4 0.4-0.3 0.8-0.7 1.3-0.7 0.2-0.6 0.8-1.1 1.5-1.1 0.4 0 0.6 0 0.8 0.2-0.2-0.2-0.2-0.4-0.2-0.6 0-0.7 0.7-1.5 1.5-1.5 0.7 0 1.4 0.8 1.4 1.5 0 0.9-0.7 1.5-1.4 1.3z"/>
	<circle id="Layer" class="s2" cx="1171.4" cy="345.9" r="1.5"/>
	<path id="Layer" class="s2" d="m1273.2 522.7c-0.2 0.2-0.6 0.2-0.8 0.2-0.5 0-0.9-0.2-1.1-0.4 0 0.5-0.5 1.1-1.3 1.1-0.7 0-1.5-0.7-1.5-1.5 0-0.7 0.8-1.5 1.5-1.5 0.6 0 1 0.2 1.1 0.4 0-0.5 0.6-1.1 1.3-1.1 0.2 0 0.2 0 0.4 0 0.2-0.2 0.5-0.2 0.7-0.2 0.2 0 0.2 0 0.4 0 0.4-0.2 0.6-0.3 0.9-0.3 0.4 0 0.9 0.1 1.1 0.5 0 0 0 0 0-0.2 0-0.7 0.8-1.5 1.5-1.5h0.2l-1.3 2.4c0 0 0 0 0 0.2 0 0.8-0.7 1.5-1.5 1.5-0.2 0-0.2 0-0.3 0-0.4 0.2-0.6 0.4-1 0.4-0.2 0-0.2 0-0.3 0z"/>
	<path id="Layer" class="s2" d="m1301.1 597.9c-0.6 0-1.1-0.2-1.3-0.8-0.2 0.6-0.8 1.1-1.5 1.1-0.7 0-1.5-0.7-1.5-1.4 0-0.8 0.8-1.5 1.5-1.5 0.6 0 1.1 0.2 1.3 0.7 0.2-0.5 0.7-1.1 1.5-1.1 0.7 0 1.4 0.8 1.4 1.5 0 0.7-0.7 1.5-1.4 1.5z"/>
	<path id="Layer" class="s2" d="m1261.9 499.2c0 0 0 0-0.2 0-0.7 0-1.5-0.7-1.5-1.5 0-0.7 0.8-1.4 1.5-1.4 0.7 0 1.3 0.5 1.5 1.3 0 0 0 0 0.2 0 0.5 0 1.1 0.1 1.3 0.7 0.1-0.2 0.3-0.2 0.5-0.2 0.8 0 1.5 0.7 1.5 1.5 0 0.7-0.7 1.5-1.5 1.5-0.5 0-1.1-0.2-1.3-0.8-0.2 0.2-0.3 0.2-0.5 0.2-0.8 0-1.3-0.5-1.5-1.3z"/>
	<path id="Layer" class="s2" d="m1258.8 489.4v-0.2c-0.2 0.2-0.4 0.2-0.6 0.2-0.7 0-1.5-0.7-1.5-1.5 0-0.7 0.8-1.4 1.5-1.4 0.7 0 1.5 0.7 1.5 1.4v0.2c0.2-0.2 0.3-0.2 0.5-0.2 0.8 0 1.5 0.8 1.5 1.5 0.4-0.3 0.8-0.7 1.3-0.7 0.7 0 1.5 0.7 1.5 1.5 0 0.7-0.8 1.4-1.5 1.4-0.7 0-1.5-0.7-1.5-1.4-0.3 0.3-0.7 0.7-1.3 0.7-0.9 0-1.4-0.6-1.4-1.5z"/>
	<circle id="Layer" class="s2" cx="1177.8" cy="340.9" r="1.5"/>
	<circle id="Layer" class="s2" cx="1305.9" cy="604.7" r="1.5"/>
	<path id="Layer" class="s2" d="m1295.3 578.7c-0.1 0.1-0.3 0.3-0.7 0.3-0.7 0-1.5-0.7-1.5-1.4 0-0.8 0.8-1.5 1.5-1.5 0.7 0 1.5 0.7 1.5 1.5v0.1c0.2-0.1 0.4-0.3 0.7-0.3 0.8 0 1.5 0.7 1.5 1.4 0 0.8-0.8 1.5-1.5 1.5-0.7 0-1.5-0.7-1.5-1.5z"/>
	<path id="Layer" class="s2" d="m1198 394.8c0.2 0.2 0.2 0.4 0.2 0.6 0 0.5 0 0.9-0.4 1.1 0.2 0 0.2 0.2 0.2 0.4 0 0.1-0.2 0.3-0.2 0.5 0.2 0.2 0.2 0.6 0.2 0.8v0.1c0.2 0.2 0.3 0.6 0.3 1 0 0.1 0 0.1 0 0.3 0.2 0.4 0.4 0.8 0.4 1.1 0 0.4-0.2 0.8-0.4 1q0.6 0.5 0.6 1.1c0 0.7-0.6 1.3-1.3 1.4 0.6 0.2 0.9 0.8 0.9 1.3 0 0.8-0.7 1.5-1.5 1.5-0.7 0-1.4-0.7-1.4-1.5 0-0.7 0.5-1.3 1.3-1.4-0.6-0.2-1-0.8-1-1.3 0-0.4 0.2-0.8 0.4-1q-0.5-0.5-0.6-1.1c0-0.1 0-0.1 0-0.3-0.1-0.4-0.3-0.8-0.3-1.1 0-0.2 0-0.2 0-0.4-0.2-0.2-0.4-0.6-0.4-0.9 0-0.2 0.2-0.4 0.2-0.6-0.2-0.2-0.2-0.5-0.2-0.7 0-0.6 0-0.9 0.4-1.1-0.2 0-0.2-0.2-0.2-0.4 0-0.6 0.5-1.1 1.1-1.3-0.2-0.2-0.2-0.4-0.2-0.6 0-0.7 0.8-1.4 1.5-1.4 0.7 0 1.5 0.7 1.5 1.4 0 0.8-0.6 1.3-1.1 1.5z"/>
	<circle id="Layer" class="s2" cx="1108.5" cy="294.3" r="1.5"/>
	<path id="Layer" class="s2" d="m1249.5 472.6v0.2c0 0.7-0.7 1.5-1.5 1.5-0.7 0-1.4-0.8-1.4-1.5 0-0.6 0.3-1.1 0.9-1.3v-0.2c0-0.7 0.7-1.5 1.5-1.5 0.7 0 1.4 0.8 1.4 1.5 0 0.6-0.5 1.1-0.9 1.3z"/>
	<path id="Layer" class="s2" d="m818.3 186.6c0-0.2 0-0.2 0-0.2-0.6 0-1.1-0.3-1.3-0.9h2c0.4-0.2 0.6-0.4 1-0.4 0.5 0 1.1 0.4 1.2 0.8 0.2-0.2 0.4-0.2 0.6-0.2 0.6 0 1.1 0.4 1.3 0.9 0.2-0.2 0.6-0.2 0.7-0.2 0.6 0 1.1 0.6 1.3 1.1 0.2-0.2 0.4-0.3 0.8-0.3 0.7 0 1.4 0.7 1.4 1.4 0.2-0.1 0.6-0.3 1-0.3 0.7 0 1.4 0.7 1.4 1.4 0 0.8-0.7 1.5-1.4 1.5-0.8 0-1.5-0.7-1.5-1.5-0.2 0.2-0.6 0.4-0.9 0.4-0.6 0-1.1-0.5-1.3-1.1-0.2 0.2-0.4 0.4-0.8 0.4-0.5 0-1.1-0.4-1.3-0.9-0.1 0.1-0.5 0.1-0.7 0.1-0.6 0-1.1-0.3-1.3-0.7-0.2 0.2-0.4 0.2-0.5 0.2-0.8 0-1.5-0.8-1.7-1.5z"/>
	<circle id="Layer" class="s2" cx="814" cy="204.2" r="1.5"/>
	<circle id="Layer" class="s2" cx="809.8" cy="197.5" r="1.5"/>
	<path id="Layer" class="s2" d="m799.4 189.6c0-0.2 0-0.2 0-0.4-0.1 0.2-0.3 0.2-0.5 0.2-0.7 0-1.5-0.6-1.5-1.3-0.2 0-0.2 0-0.4 0-0.5 0-1.1-0.4-1.2-0.9h-0.2c-0.4 0-1-0.2-1.1-0.6h-0.2c-0.4 0-0.9-0.2-1.1-0.5h-0.2q-0.9 0-1.1-0.6c-0.2 0-0.2 0-0.2 0-0.8 0-1.5-0.7-1.5-1.5-0.4-0.2-0.7-0.5-0.9-0.9h1.3c0.3-0.2 0.7-0.4 1.1-0.4q0.8 0 1.1 0.6c0.2 0 0.2 0 0.2 0 0.4 0 0.9 0.2 1.1 0.5h0.2c0.3 0 0.9 0.4 1.1 0.8h0.2c0.5 0 1.1 0.3 1.3 0.9h0.1c0.8 0 1.5 0.6 1.5 1.3 0.2 0 0.2 0 0.4 0 0.7 0 1.5 0.7 1.5 1.5 0 0.2 0 0.2 0 0.3 0.2-0.1 0.3-0.1 0.5-0.1 0.8 0 1.5 0.7 1.5 1.4 0 0.8-0.7 1.5-1.5 1.5-0.9 0-1.5-0.7-1.5-1.8z"/>
	<circle id="Layer" class="s2" cx="818.8" cy="213" r="1.5"/>
	<circle id="Layer" class="s2" cx="834.9" cy="257" r="1.5"/>
	<circle id="Layer" class="s2" cx="823.8" cy="224.5" r="1.5"/>
	<circle id="Layer" class="s2" cx="829.2" cy="238.9" r="1.5"/>
	<circle id="Layer" class="s2" cx="885.7" cy="535.1" r="1.5"/>
	<circle id="Layer" class="s2" cx="841.2" cy="279.4" r="1.5"/>
	<circle id="Layer" class="s2" cx="847.7" cy="306.3" r="1.5"/>
	<circle id="Layer" class="s2" cx="877.6" cy="474.5" r="1.5"/>
	<circle id="Layer" class="s2" cx="854.7" cy="338.7" r="1.5"/>
	<circle id="Layer" class="s2" cx="869.7" cy="422" r="1.5"/>
	<circle id="Layer" class="s2" cx="862.1" cy="376.9" r="1.5"/>
	<circle id="Layer" class="s2" cx="917.3" cy="348.3" r="1.5"/>
	<path id="Layer" class="s2" d="m1035.9 262.7c0-0.2 0-0.2 0-0.3q-0.5-0.3-0.5-1.2c0-0.1 0-0.1 0-0.3-0.2-0.2-0.4-0.6-0.4-0.9 0-0.4 0.2-1 0.6-1.2-0.2-0.1-0.4-0.5-0.4-0.9 0-0.7 0.7-1.5 1.5-1.5 0.7 0 1.5 0.8 1.5 1.5 0 0.4-0.2 0.9-0.6 1.1 0.2 0.2 0.4 0.6 0.4 1 0 0.1 0 0.1 0 0.3 0.2 0.2 0.3 0.6 0.3 0.9 0 0.2 0 0.2 0 0.4q0.6 0.3 0.6 1.1c0 0.8-0.8 1.5-1.5 1.5-0.9 0-1.5-0.6-1.5-1.5z"/>
	<circle id="Layer" class="s2" cx="889.1" cy="211.2" r="1.5"/>
	<circle id="Layer" class="s2" cx="860.6" cy="194.9" r="1.5"/>
	<circle id="Layer" class="s2" cx="866.9" cy="197.5" r="1.5"/>
	<path id="Layer" class="s2" d="m851.2 193.4c-0.8 0-1.5-0.7-1.5-1.4v-0.2c-0.4 0.3-0.7 0.7-1.3 0.7-0.7 0-1.3-0.5-1.5-1.3-0.2 0.2-0.5 0.4-0.9 0.4-0.7 0-1.5-0.7-1.5-1.5 0-0.2 0.2-0.4 0.2-0.5-0.2 0.1-0.4 0.1-0.5 0.1-0.6 0-1.1-0.3-1.3-0.9h2.7c0.2-0.2 0.4-0.2 0.6-0.2 0.7 0 1.3 0.6 1.5 1.3 0.2-0.2 0.5-0.3 0.9-0.3 0.7 0 1.5 0.7 1.5 1.4v0.2c0.3-0.3 0.7-0.7 1.3-0.7 0.7 0 1.4 0.7 1.4 1.5 0 0.9-0.7 1.4-1.6 1.4z"/>
	<circle id="Layer" class="s2" cx="881.1" cy="205.3" r="1.5"/>
	<circle id="Layer" class="s2" cx="879.6" cy="246.7" r="1.5"/>
	<circle id="Layer" class="s2" cx="897.4" cy="288" r="1.5"/>
	<circle id="Layer" class="s2" cx="888.3" cy="265.1" r="1.5"/>
	<circle id="Layer" class="s2" cx="907.2" cy="315.4" r="1.5"/>
	<circle id="Layer" class="s2" cx="850.3" cy="203.2" r="1.5"/>
	<circle id="Layer" class="s2" cx="844" cy="197.9" r="1.5"/>
	<circle id="Layer" class="s2" cx="838.4" cy="194" r="1.5"/>
	<circle id="Layer" class="s2" cx="928" cy="386.9" r="1.5"/>
	<circle id="Layer" class="s2" cx="856.7" cy="210.4" r="1.5"/>
	<circle id="Layer" class="s2" cx="863.9" cy="219.7" r="1.5"/>
	<circle id="Layer" class="s2" cx="871.5" cy="231.5" r="1.5"/>
	<circle id="Layer" class="s2" cx="938.9" cy="432.3" r="1.5"/>
	<circle id="Layer" class="s2" cx="949.8" cy="484.8" r="1.5"/>
	<circle id="Layer" class="s2" cx="960.4" cy="545" r="1.5"/>
	<circle id="Layer" class="s2" cx="725.5" cy="208.4" r="1.5"/>
	<circle id="Layer" class="s2" cx="726.1" cy="199.9" r="1.5"/>
	<circle id="Layer" class="s2" cx="724.8" cy="219.5" r="1.5"/>
	<circle id="Layer" class="s2" cx="724.1" cy="233.5" r="1.5"/>
	<circle id="Layer" class="s2" cx="716.5" cy="526.7" r="1.5"/>
	<circle id="Layer" class="s2" cx="717.6" cy="466.3" r="1.5"/>
	<circle id="Layer" class="s2" cx="723.3" cy="251.3" r="1.5"/>
	<circle id="Layer" class="s2" cx="722.6" cy="273.3" r="1.5"/>
	<circle id="Layer" class="s2" cx="721.7" cy="299.7" r="1.5"/>
	<circle id="Layer" class="s2" cx="718.7" cy="414.2" r="1.5"/>
	<circle id="Layer" class="s2" cx="719.8" cy="369.5" r="1.5"/>
	<circle id="Layer" class="s2" cx="720.7" cy="331.6" r="1.5"/>
	<circle id="Layer" class="s2" cx="779.7" cy="252.4" r="1.5"/>
	<path id="Layer" class="s2" d="m766 192c-0.7 0-1.5-0.8-1.5-1.5 0-0.4 0.2-0.8 0.4-0.9-0.7-0.2-1.3-0.8-1.3-1.5 0-0.2 0-0.2 0-0.4-0.5-0.2-0.9-0.5-0.9-1.1-0.4-0.2-0.6-0.4-0.8-0.7-0.1 0-0.3-0.2-0.5-0.4-0.2 0-0.4-0.2-0.6-0.4-0.2 0-0.3-0.2-0.5-0.3-0.6-0.2-0.9-0.8-0.9-1.3 0-0.2 0-0.2 0-0.4-0.2-0.2-0.4-0.4-0.4-0.6h0.7q0.6-0.5 1.1-0.5 0.9 0 1.1 0.5c0.2 0 0.4 0.2 0.6 0.4 0.4 0.2 0.6 0.4 0.7 0.6 0.4 0 0.6 0.3 0.8 0.7 0.3 0.2 0.7 0.6 0.7 1.1 0.4 0.2 0.8 0.8 0.8 1.3 0 0.2 0 0.2 0 0.4 0.5 0.2 0.9 0.7 0.9 1.3 0 0.3-0.2 0.7-0.4 0.9 0.7 0.2 1.3 0.7 1.3 1.5 0 0.9-0.7 1.4-1.3 1.3z"/>
	<circle id="Layer" class="s2" cx="770.3" cy="200.6" r="1.5"/>
	<circle id="Layer" class="s2" cx="777.1" cy="234.6" r="1.5"/>
	<circle id="Layer" class="s2" cx="774.7" cy="220.4" r="1.5"/>
	<circle id="Layer" class="s2" cx="772.3" cy="209.1" r="1.5"/>
	<circle id="Layer" class="s2" cx="788.5" cy="332.9" r="1.5"/>
	<circle id="Layer" class="s2" cx="799.3" cy="467.8" r="1.5"/>
	<circle id="Layer" class="s2" cx="803.1" cy="528.4" r="1.5"/>
	<circle id="Layer" class="s2" cx="785.4" cy="301" r="1.5"/>
	<circle id="Layer" class="s2" cx="782.5" cy="274.2" r="1.5"/>
	<circle id="Layer" class="s2" cx="791.9" cy="370.8" r="1.5"/>
	<circle id="Layer" class="s2" cx="795.4" cy="415.5" r="1.5"/>
	<circle id="Layer" class="s2" cx="1098.6" cy="376.2" r="1.5"/>
	<circle id="Layer" class="s2" cx="1114.8" cy="409.8" r="1.5"/>
	<circle id="Layer" class="s2" cx="1082.3" cy="347" r="1.5"/>
	<circle id="Layer" class="s2" cx="1145.9" cy="491.5" r="1.5"/>
	<circle id="Layer" class="s2" cx="1159.5" cy="539.5" r="1.5"/>
	<circle id="Layer" class="s2" cx="1066.1" cy="322.2" r="1.5"/>
	<circle id="Layer" class="s2" cx="1130.7" cy="448.2" r="1.5"/>
	<path id="Layer" class="s2" d="m997.9 245c0 0.7-0.8 1.5-1.5 1.5-0.7 0-1.5-0.8-1.5-1.5 0-0.8 0.8-1.5 1.5-1.5 0.4 0 0.7 0.2 0.9 0.4v-0.2c0-0.7 0.8-1.5 1.5-1.5 0.2 0 0.4 0.2 0.6 0.2 0.1-0.2 0.5-0.4 0.9-0.4h0.2c0.1-0.3 0.7-0.5 1.1-0.5 0.7 0 1.4 0.7 1.4 1.5 0 0.7-0.7 1.4-1.4 1.4h-0.2c-0.2 0.4-0.8 0.6-1.1 0.6-0.2 0-0.4-0.2-0.6-0.2-0.2 0.2-0.5 0.4-0.9 0.4-0.4 0-0.7-0.2-0.9-0.4z"/>
	<circle id="Layer" class="s2" cx="1006.9" cy="256.1" r="1.5"/>
	<circle id="Layer" class="s2" cx="1020.6" cy="268.5" r="1.5"/>
	<circle id="Layer" class="s2" cx="1035.2" cy="283.2" r="1.5"/>
	<circle id="Layer" class="s2" cx="1050.3" cy="301" r="1.5"/>
	<path id="Layer" class="s2" d="m984.9 238.7c-0.7 0-1.4-0.7-1.4-1.5 0-0.7 0.7-1.4 1.4-1.4 0.6 0 1.2 0.3 1.3 0.9 0.2-0.8 0.8-1.3 1.5-1.3 0.6 0 0.9 0.2 1.1 0.4 0.2-0.2 0.6-0.4 0.9-0.4 0.4 0 0.6 0 0.8 0.2 0.2-0.4 0.7-0.8 1.3-0.8 0.7 0 1.5 0.8 1.5 1.5 0 0.7-0.8 1.5-1.5 1.5-0.4 0-0.6 0-0.8-0.2-0.1 0.4-0.7 0.7-1.3 0.7-0.5 0-0.9-0.1-1.1-0.3-0.1 0.2-0.5 0.3-0.9 0.3-0.5 0-1.1-0.3-1.3-0.9-0.2 0.8-0.7 1.3-1.5 1.3z"/>
	<circle id="Layer" class="s2" cx="1171.4" cy="592.1" r="1.5"/>
	<path id="Layer" class="s2" d="m970.7 231.3c-0.7 0-1.5-0.7-1.5-1.5 0-0.7 0.8-1.4 1.5-1.4-0.2-0.4-0.4-0.6-0.4-1 0-0.7 0.8-1.4 1.5-1.4 0.8 0 1.5 0.7 1.5 1.4 0 0.8-0.7 1.5-1.5 1.5 0.2 0.4 0.4 0.6 0.4 0.9 0 0.8-0.7 1.5-1.5 1.5z"/>
	<path id="Layer" class="s2" d="m923.4 211c-0.2 0.5-0.7 0.9-1.3 0.9-0.7 0-1.5-0.7-1.5-1.5 0-0.7 0.8-1.4 1.5-1.4h0.2c0.2-0.6 0.7-1 1.3-1 0.7 0 1.5 0.8 1.5 1.5 0 0.8-0.8 1.5-1.5 1.5z"/>
	<path id="Layer" class="s2" d="m931.9 214.5c0 0.6-0.5 1.1-1.3 1.1-0.7 0-1.5-0.7-1.5-1.5 0-0.5 0.6-1.1 1.2-1.3 0-0.5 0.5-1.1 1.2-1.1 0.8 0 1.5 0.8 1.5 1.5 0 0.7-0.3 1.3-1.1 1.3z"/>
	<path id="Layer" class="s2" d="m957.4 224.5c0-0.2 0-0.2 0-0.4-0.5 0-1.1-0.5-1.1-1.3 0-0.7 0.7-1.5 1.5-1.5 0.7 0 1.5 0.8 1.5 1.5 0 0.2 0 0.2 0 0.4 0.5 0 1.1 0.5 1.1 1.3 0 0.7-0.8 1.5-1.5 1.5-0.7 0-1.5-0.8-1.5-1.5z"/>
	<circle id="Layer" class="s2" cx="966.5" cy="226.3" r="1.5"/>
	<circle id="Layer" class="s2" cx="1205" cy="603.4" r="1.5"/>
	<path id="Layer" class="s2" d="m978.8 232.1c-0.3 0.3-0.7 0.7-1.2 0.7-0.8 0-1.5-0.7-1.5-1.5 0-0.7 0.7-1.5 1.5-1.5 0.5 0 1.1 0.4 1.2 1 0.4-0.4 0.8-0.8 1.3-0.8 0.8 0 1.5 0.8 1.5 1.5 0 0.7-0.7 1.5-1.5 1.5-0.5 0-1.1-0.4-1.3-0.9z"/>
	<circle id="Layer" class="s2" cx="1193.9" cy="553.2" r="1.5"/>
	<circle id="Layer" class="s2" cx="1180.6" cy="507" r="1.5"/>
	<path id="Layer" class="s2" d="m950.8 219.5c0 0.2-0.2 0.4-0.2 0.5 0.2 0.2 0.4 0.6 0.4 1 0 0.3-0.2 0.9-0.6 1.1 0.6 0.2 0.9 0.7 0.9 1.3 0 0.7-0.7 1.4-1.5 1.4-0.7 0-1.4-0.7-1.4-1.4 0-0.4 0.1-1 0.5-1.1-0.5-0.2-0.9-0.8-0.9-1.3 0-0.2 0.2-0.4 0.2-0.6-0.2-0.2-0.4-0.5-0.4-0.9 0-0.7 0.7-1.5 1.5-1.5 0.7 0 1.5 0.6 1.5 1.5z"/>
	<circle id="Layer" class="s2" cx="1116.7" cy="365.1" r="1.5"/>
	<circle id="Layer" class="s2" cx="1100" cy="339.8" r="1.5"/>
	<circle id="Layer" class="s2" cx="1133.3" cy="394.1" r="1.5"/>
	<circle id="Layer" class="s2" cx="1149.8" cy="427.3" r="1.5"/>
	<circle id="Layer" class="s2" cx="1165.6" cy="465" r="1.5"/>
	<circle id="Layer" class="s2" cx="1083.6" cy="318.2" r="1.5"/>
	<circle id="Layer" class="s2" cx="1052.6" cy="284.2" r="1.5"/>
	<circle id="Layer" class="s2" cx="1067.7" cy="299.7" r="1.5"/>
	<path id="Layer" class="s2" d="m1010.8 249.6c0-0.5 0.6-1.1 1.1-1.3 0.2-0.5 0.6-0.7 0.9-0.9 0.2-0.2 0.4-0.4 0.8-0.6 0-0.7 0.7-1.3 1.5-1.3 0.7 0 1.4 0.8 1.4 1.5 0 0.6-0.5 1.1-1.1 1.3 0 0.6-0.3 1.1-0.9 1.3-0.2 0.2-0.5 0.4-0.9 0.6-0.2 0.5-0.8 0.9-1.3 0.9-0.9 0-1.5-0.6-1.5-1.5z"/>
	<circle id="Layer" class="s2" cx="1037.8" cy="271" r="1.5"/>
	<circle id="Layer" class="s2" cx="938.6" cy="276.2" r="1.5"/>
	<path id="Layer" class="s2" d="m876.9 199.5c-0.4 0-0.8-0.1-1-0.3 0 0.2 0.2 0.5 0.2 0.7 0 0.7-0.7 1.5-1.5 1.5-0.7 0-1.4-0.8-1.4-1.5 0-0.7 0.7-1.5 1.4-1.5 0.4 0 0.8 0.2 1 0.4 0-0.2-0.2-0.6-0.2-0.7 0-0.8 0.7-1.5 1.5-1.5 0.7 0 1.4 0.7 1.4 1.5 0 0.9-0.5 1.4-1.4 1.4z"/>
	<circle id="Layer" class="s2" cx="959.6" cy="253.5" r="1.5"/>
	<circle id="Layer" class="s2" cx="947.8" cy="240.2" r="1.5"/>
	<circle id="Layer" class="s2" cx="936.5" cy="229.7" r="1.5"/>
	<circle id="Layer" class="s2" cx="926.2" cy="221.2" r="1.5"/>
	<circle id="Layer" class="s2" cx="985.1" cy="289.9" r="1.5"/>
	<circle id="Layer" class="s2" cx="972" cy="269.9" r="1.5"/>
	<circle id="Layer" class="s2" cx="872.1" cy="194.9" r="1.5"/>
	<circle id="Layer" class="s2" cx="884.4" cy="199.5" r="1.5"/>
	<path id="Layer" class="s2" d="m900.5 204.5c0 0.8-0.7 1.5-1.5 1.5-0.7 0-1.4-0.7-1.4-1.5 0-0.2 0.1-0.5 0.3-0.7q-0.5-0.6-0.5-1.1c0-0.8 0.7-1.5 1.4-1.5 0.8 0 1.5 0.7 1.5 1.5 0 0.2-0.2 0.5-0.3 0.7q0.5 0.3 0.5 1.1z"/>
	<circle id="Layer" class="s2" cx="916.6" cy="214.5" r="1.5"/>
	<path id="Layer" class="s2" d="m908.6 208.2c0 0.8-0.7 1.5-1.4 1.5-0.8 0-1.5-0.7-1.5-1.5 0-0.5 0.2-0.9 0.4-1.1-1 0-1.5-0.7-1.5-1.5 0-0.7 0.7-1.4 1.5-1.4 0.7 0 1.4 0.7 1.4 1.4 0 0.6-0.2 1-0.3 1.1 0.7 0 1.3 0.6 1.4 1.5z"/>
	<circle id="Layer" class="s2" cx="1001.4" cy="445.4" r="1.5"/>
	<circle id="Layer" class="s2" cx="988.5" cy="400" r="1.5"/>
	<circle id="Layer" class="s2" cx="962.6" cy="327.8" r="1.5"/>
	<circle id="Layer" class="s2" cx="975.3" cy="361" r="1.5"/>
	<circle id="Layer" class="s2" cx="1014.1" cy="497.6" r="1.5"/>
	<circle id="Layer" class="s2" cx="897.7" cy="218.9" r="1.5"/>
	<circle id="Layer" class="s2" cx="917" cy="241.3" r="1.5"/>
	<circle id="Layer" class="s2" cx="950.4" cy="299.7" r="1.5"/>
	<circle id="Layer" class="s2" cx="927.5" cy="257" r="1.5"/>
	<circle id="Layer" class="s2" cx="907" cy="228.7" r="1.5"/>
	<circle id="Layer" class="s2" cx="999" cy="313.9" r="1.5"/>
	<circle id="Layer" class="s2" cx="1026" cy="556.5" r="1.5"/>
	<circle id="Layer" class="s2" cx="1013.2" cy="342.4" r="1.5"/>
	<circle id="Layer" class="s2" cx="913.1" cy="207.5" r="1.5"/>
	<circle id="Layer" class="s2" cx="961.3" cy="233" r="1.5"/>
	<circle id="Layer" class="s2" cx="973.1" cy="242.2" r="1.5"/>
	<circle id="Layer" class="s2" cx="1104.8" cy="475.8" r="1.5"/>
	<circle id="Layer" class="s2" cx="1118.5" cy="525.5" r="1.5"/>
	<circle id="Layer" class="s2" cx="1074.2" cy="392.4" r="1.5"/>
	<circle id="Layer" class="s2" cx="985.7" cy="253.7" r="1.5"/>
	<circle id="Layer" class="s2" cx="1130.7" cy="580.5" r="1.5"/>
	<circle id="Layer" class="s2" cx="1089.9" cy="431.4" r="1.5"/>
	<circle id="Layer" class="s2" cx="999.2" cy="267.7" r="1.5"/>
	<circle id="Layer" class="s2" cx="1013.2" cy="284.7" r="1.5"/>
	<circle id="Layer" class="s2" cx="1058.7" cy="358.8" r="1.5"/>
	<circle id="Layer" class="s2" cx="1043" cy="330" r="1.5"/>
	<circle id="Layer" class="s2" cx="1027.8" cy="305.4" r="1.5"/>
	<circle id="Layer" class="s2" cx="1042.4" cy="415.1" r="1.5"/>
	<circle id="Layer" class="s2" cx="1027.8" cy="376" r="1.5"/>
	<circle id="Layer" class="s2" cx="1056.8" cy="460" r="1.5"/>
	<circle id="Layer" class="s2" cx="1070.3" cy="511.2" r="1.5"/>
	<circle id="Layer" class="s2" cx="1082.5" cy="568.5" r="1.5"/>
	<g id="Layer">
		<path id="Layer" class="s3" d="m1212.5 388.6c-46.2-51.9-58.7-115.9-28.1-143.2 30.7-27.3 92.8-7.5 139.1 44.4 46.2 51.9 58.7 115.9 28.1 143.2-30.7 27.3-92.8 7.5-139.1-44.4z"/>
	</g>
	<g id="Layer">
		<path id="Layer" class="s3" d="m240.4 379.5c-34.7 60.1-91.5 92.2-127.1 71.6-35.6-20.5-36.2-85.7-1.5-145.9 34.7-60.2 91.6-92.2 127.1-71.7 35.6 20.6 36.3 85.8 1.5 146z"/>
	</g>
	<g id="Layer">
		<ellipse id="Layer" class="s4" cx="1154" cy="601" rx="246" ry="69"/>
	</g>
	<g id="Layer">
		<ellipse id="Layer" class="s4" cx="286" cy="601" rx="246" ry="69"/>
	</g>
	<g id="Layer" style="opacity: .3">
		<circle id="Layer" class="s2" cx="366.9" cy="621" r="1.5"/>
		<circle id="Layer" class="s2" cx="551.7" cy="586.3" r="1.5"/>
		<circle id="Layer" class="s2" cx="630.9" cy="577.8" r="1.5"/>
		<circle id="Layer" class="s2" cx="419.6" cy="608.8" r="1.5"/>
		<circle id="Layer" class="s2" cx="481.1" cy="597" r="1.5"/>
		<circle id="Layer" class="s2" cx="885.7" cy="582.1" r="1.5"/>
		<circle id="Layer" class="s2" cx="960.4" cy="592" r="1.5"/>
		<circle id="Layer" class="s2" cx="716.5" cy="573.7" r="1.5"/>
		<circle id="Layer" class="s2" cx="803.1" cy="575.4" r="1.5"/>
		<circle id="Layer" class="s2" cx="1026" cy="603.5" r="1.5"/>
	</g>
	<g id="Layer" style="opacity: .2">
		<circle id="Layer" class="s2" cx="289.9" cy="719.3" r="1.5"/>
		<circle id="Layer" class="s2" cx="556.7" cy="661.3" r="1.5"/>
		<circle id="Layer" class="s2" cx="635.9" cy="652.8" r="1.5"/>
		<circle id="Layer" class="s2" cx="424.6" cy="683.8" r="1.5"/>
		<circle id="Layer" class="s2" cx="486.1" cy="672" r="1.5"/>
		<circle id="Layer" class="s2" cx="890.7" cy="657.1" r="1.5"/>
		<circle id="Layer" class="s2" cx="965.4" cy="667" r="1.5"/>
		<circle id="Layer" class="s2" cx="721.5" cy="648.7" r="1.5"/>
		<circle id="Layer" class="s2" cx="808.1" cy="650.4" r="1.5"/>
	</g>
</svg>