<svg id="Layer_1" data-name="Layer 1" xmlns="http://www.w3.org/2000/svg" xmlns:xlink="http://www.w3.org/1999/xlink" viewBox="0 0 417.45 112.71"><defs><style>.cls-1{isolation:isolate;}.cls-2{fill:#fff;}.cls-3{fill:url(#linear-gradient);}</style><linearGradient id="linear-gradient" x1="102.07" y1="84.83" x2="25.93" y2="25.35" gradientUnits="userSpaceOnUse"><stop offset="0" stop-color="#22cbfa"/><stop offset="0.41" stop-color="#734dee"/><stop offset="0.68" stop-color="#c630ae"/><stop offset="1" stop-color="#ef603b"/></linearGradient></defs><g class="cls-1"><path class="cls-2" d="M155.25,34.71c4.21,2.07,5,6,4.55,9.45-.62,4.55-3.93,8.63-11.75,8.63H134.39v-34h13.43c5.84,0,10.64,3.4,10.64,10A7,7,0,0,1,155.25,34.71Zm-7.43-2.58c4.79,0,5.36-6.43,0-6.43h-6.38v6.43Zm-6.38,6v7.76h6.38c6.61,0,6.71-7.76,0-7.76Z"/><path class="cls-2" d="M185.69,52.79H164V18.85H171V45.69h14.67Z"/><path class="cls-2" d="M216,29.44V42.19c0,15.05-27.8,15.1-27.8,0V29.44C188.23,14.29,216,14.39,216,29.44Zm-20.8,12.75c0,5.71,13.76,5.66,13.76,0V29.44c0-5.85-13.76-5.7-13.76,0Z"/><path class="cls-2" d="M245.71,46a14.48,14.48,0,0,1-12.22,7.09c-6.57,0-13.18-3.78-13.18-11.26V29.78c0-7.43,6.61-11.27,13.32-11.27a12.84,12.84,0,0,1,11.79,7.29l-5.65,3.07c-2.93-5.56-12.47-4.37-12.47.91V41.86c0,5.22,9.45,6.33,12.32.76Z"/><path class="cls-2" d="M255.83,18.85V33l12.08-14.14h8.58L261.92,35.48l14.57,17.31h-8.72l-10.6-12.61-1.34,1.29V52.79h-7.05V18.85Z"/><path class="cls-2" d="M300.85,46a14.5,14.5,0,0,1-12.23,7.09c-6.57,0-13.18-3.78-13.18-11.26V29.78c0-7.43,6.61-11.27,13.33-11.27a12.85,12.85,0,0,1,11.79,7.29l-5.66,3.07c-2.92-5.56-12.46-4.37-12.46.91V41.86c0,5.22,9.44,6.33,12.32.76Z"/><path class="cls-2" d="M323.76,39.36H311.25V52.79H304.2V18.85h7.05V32.32h12.51V18.85h7.05V52.79h-7.05Z"/><path class="cls-2" d="M344.86,18.85h6.76l12.17,33.94h-7.38l-3-7.77H343.32c-1.05,2.88-1.72,4.75-2.83,7.77H333ZM348,26.33l-1,4.89-1.91,7.33h6.52l-2.16-7.38-1-4.84Z"/><path class="cls-2" d="M366.19,18.85h7.05V52.79h-7.05Z"/><path class="cls-2" d="M399.41,43.39c-.38-2.2-1-6.47-1-7.19V18.85h7V52.79h-7.52L387.57,35l-2.06-4.6-.48.1.91,5.8V52.79h-7.09V18.85h6.95l10.74,18.5,2.39,6.14Z"/></g><g class="cls-1"><path class="cls-2" d="M145.63,65.34c4.48,0,9,2,11,6.24l-3.29,1.67c-1.45-2.77-4.65-4.22-7.82-4.22-4,0-8,2-8,6V87.34c0,4,4,6,8,6,3.21,0,6.41-1.4,7.82-4.17l3.29,1.54c-2,4.21-6.63,6.32-11.11,6.32-5.84,0-11.72-3.25-11.72-9.71V75.05C133.78,68.64,139.71,65.34,145.63,65.34Z"/><path class="cls-2" d="M172.07,64.9c6.19,0,12.43,3.25,12.43,9.75v13c0,6.49-6.24,9.79-12.43,9.79s-12.43-3.3-12.43-9.79v-13C159.64,68.15,165.84,64.9,172.07,64.9Zm-8.78,22.8c0,4.08,4.35,6.14,8.78,6.14s8.74-2.06,8.79-6.14v-13c0-4.3-4.44-6.15-8.83-6.15s-8.74,1.94-8.74,6.15Z"/><path class="cls-2" d="M203,92.66l-9-20.07V96.74H190.3V65.65h4.61l9.61,21.69c3.21-7.15,6.5-14.49,9.62-21.69h4.61V96.74h-3.68V72.54l-9,20.12Z"/><path class="cls-2" d="M238,92.66l-9-20.07V96.74H225.3V65.65h4.61l9.62,21.69c3.2-7.15,6.49-14.49,9.61-21.69h4.62V96.74h-3.69V72.54l-9,20.12Z"/><path class="cls-2" d="M272,64.9c6.2,0,12.43,3.25,12.43,9.75v13c0,6.49-6.23,9.79-12.43,9.79s-12.42-3.3-12.42-9.79v-13C259.6,68.15,265.79,64.9,272,64.9Zm-8.78,22.8c0,4.08,4.35,6.14,8.78,6.14s8.74-2.06,8.79-6.14v-13c0-4.3-4.44-6.15-8.83-6.15s-8.74,1.94-8.74,6.15Z"/><path class="cls-2" d="M290.34,96.74V65.65h10.53c5.93,0,11.82,2.77,11.82,9.35V87.43c0,6.55-5.89,9.31-11.82,9.31Zm10.53-3.69c4.09,0,8.13-1.58,8.13-5.62V75c0-4.08-4-5.66-8.13-5.66H294V93.05Z"/><path class="cls-2" d="M318.13,65.65h3.65V96.74h-3.65Z"/><path class="cls-2" d="M349.09,65.61v3.68h-10V96.74h-3.68V69.29h-10V65.61Z"/><path class="cls-2" d="M352.52,65.65h3.64V96.74h-3.64Z"/><path class="cls-2" d="M382.73,69.29H366.48V79.35h15V83h-15v10h16.25v3.69H362.8V65.61h19.93Z"/><path class="cls-2" d="M398.15,78.82c5.4,1.06,11.33,2.29,10.93,9.93-.31,5.71-5.75,8.52-11.28,8.52-4.7,0-9.62-2.24-11.56-6.68l3.39-1.53c1.31,3,4.87,4.56,8.25,4.56,3.69,0,7.29-1.66,7.51-5.05.4-4.48-3.73-5.35-8.12-6.28-5-1.05-10.32-2.63-10.37-8.87.31-5.44,5.58-8.34,10.94-8.34,4.61,0,9.49,2.15,11.37,6.5l-3.33,1.49c-1.28-2.9-4.75-4.43-8-4.43-3.6,0-7.07,1.62-7.29,4.91C390.29,77.29,394.06,78,398.15,78.82Z"/></g><g id="Group_1995" data-name="Group 1995"><path class="cls-3" d="M81.14,80.49l.31,0c2.14,3.92,2.14,3.92,4.12,7.62a8.82,8.82,0,0,0-2.37,3.29c-12.78.83-12.78.83-26.16,1a3.69,3.69,0,0,0-.19-.56c10.86-5.66,10.86-5.66,21.82-11.91A4.54,4.54,0,0,0,81.14,80.49ZM54.26,88.43c8-13.12,8-13.12,16.34-27.36,3.45,6.08,3.45,6.08,6.76,12a5.12,5.12,0,0,0-.91,2.78,6.31,6.31,0,0,0,0,1c-11,6.26-11,6.26-21.82,12ZM50,26.1c8.83,14.72,8.83,14.72,18.16,30.77-9,15.51-9,15.51-17.57,29.84a9.46,9.46,0,0,0-1.84-.24c-4.58-.2-8,3-7.63,6.87.4,3.71,4.08,6.81,8.38,7.11,3.69.16,6.76-1.82,7.59-4.73,13.06-.18,13.06-.18,25.62-1.1.34,2.65,2.75,4.23,5.85,3.75a9.56,9.56,0,0,0,7.34-7,4.74,4.74,0,0,0-1.07-4.15,247.27,247.27,0,0,0,12.76-23.39c2.9-.3,5.14-3.71,5.17-7.7s-2.43-7.55-5.4-7.78h-.49A245.5,245.5,0,0,0,94.83,26.55a4.68,4.68,0,0,0,1.07-4.13,9.52,9.52,0,0,0-7.31-6.94c-3.11-.48-5.51,1.08-5.88,3.71-12.44-.91-12.44-.91-25.41-1.11-.31-3.36-3.62-5.76-7.7-5.57-4.25.29-8,3.36-8.33,7-.34,3.86,3,6.94,7.54,6.74.41,0,.82-.06,1.22-.12ZM77.36,40.71c-3.31,5.9-3.31,5.9-6.76,12C62,38,62,38,53.81,24.62l.06,0c11.24,5.9,11.24,5.9,22.64,12.39a4.44,4.44,0,0,0-.07,1,5.13,5.13,0,0,0,.92,2.78ZM90,24.66A4.55,4.55,0,0,1,86.14,21,2.35,2.35,0,0,1,88,18.23a2.33,2.33,0,0,1,1,.05,4.81,4.81,0,0,1,3.81,3.61A2.36,2.36,0,0,1,91,24.68a2.39,2.39,0,0,1-1,0ZM49.37,15.77c2.12-.1,3.78,1.25,3.71,3.05A4.06,4.06,0,0,1,49,22.34c-2.16.1-3.79-1.32-3.64-3.17a4.1,4.1,0,0,1,4-3.4Zm58.18,36.64c1.46.06,2.64,1.75,2.65,3.75s-1.15,3.63-2.61,3.64-2.81-1.64-2.81-3.69,1.24-3.73,2.77-3.7Zm-4.15-2.09c-8.15-5.87-8.15-5.87-17.27-11.86a.24.24,0,0,0,0-.12,5.24,5.24,0,0,0-1.21-3.09c2-3.93,2-3.93,4-7.6a9.61,9.61,0,0,0,1.51.3,6,6,0,0,0,1.85-.05c6.36,10.66,6.36,10.66,12,21.57a3.85,3.85,0,0,0-.86.85ZM48.93,90.4A4.09,4.09,0,0,1,53,94c0,1.83-1.64,3.21-3.74,3.11a4.09,4.09,0,0,1-4-3.45c-.13-1.88,1.49-3.35,3.66-3.25ZM90,89.14a2.37,2.37,0,0,1,2.85,2.8,4.74,4.74,0,0,1-3.79,3.6,2.35,2.35,0,0,1-2.9-1.65,2.43,2.43,0,0,1,0-1A4.6,4.6,0,0,1,90,89.13ZM86.15,75.31c9.66-6.38,9.66-6.38,18.17-12.54a3.57,3.57,0,0,0,.49.38C99,74.61,99,74.61,92.27,85.91a6.18,6.18,0,0,0-1.87-.06,7,7,0,0,0-1.5.31l-4-7.64a5.42,5.42,0,0,0,1.22-3.1.14.14,0,0,1,0-.11ZM81.53,43.07A4.46,4.46,0,0,0,84.69,42c9,5.84,9,5.84,17.12,11.47a10,10,0,0,0-.34,2.67,9.78,9.78,0,0,0,.8,3.89C94,65.79,94,65.79,84.68,71.82a4.36,4.36,0,0,0-3.14-1.14,7,7,0,0,0-.79.08C77,63.91,77,63.91,73,56.88c4-7.06,4-7.06,7.75-13.89a5.42,5.42,0,0,0,.8.08ZM59.15,56.43a7,7,0,0,0-7-7h-.06a7.11,7.11,0,0,0-7,7.06,7,7,0,1,0,14,.16v-.17Zm-18,16.86a9,9,0,0,0-8.55-8.83A7.44,7.44,0,0,0,25,71.77c0,.27,0,.55,0,.82a9.24,9.24,0,0,0,8.25,8.64,7.4,7.4,0,0,0,7.84-6.94,6.69,6.69,0,0,0,0-1Zm-6.69-30A8.76,8.76,0,0,0,42.6,35a6.74,6.74,0,0,0-6.14-7.29,7.62,7.62,0,0,0-1.17,0,9,9,0,0,0-7.92,8.14,6.78,6.78,0,0,0,6,7.48,7.46,7.46,0,0,0,1.06,0Zm46.73-10a4.88,4.88,0,0,0-2.51.57c-11.15-6.35-11.15-6.35-22.15-12.07l.18-.36c13.55.17,13.55.17,26.52,1a8.72,8.72,0,0,0,2.36,3.27c-2,3.7-2,3.7-4.1,7.61l-.3,0ZM38.6,52.23A3.89,3.89,0,1,1,35,56.39c0-.1,0-.2,0-.29a3.73,3.73,0,0,1,3.6-3.86h0Zm9.74-17.48a3.62,3.62,0,0,1,3.79,3.43v.22a4,4,0,0,1-4,3.89,3.63,3.63,0,0,1-3.75-3.48v-.23a4,4,0,0,1,3.92-3.82ZM33.5,19.07a2.35,2.35,0,0,1,2.85,1.7,2.37,2.37,0,0,1,0,.92,4.23,4.23,0,0,1-3.68,3.49,2.37,2.37,0,0,1-2.81-1.83,2.17,2.17,0,0,1,0-.88,4.38,4.38,0,0,1,3.61-3.4ZM20.24,33.9c1.52-.29,2.55.93,2.3,2.73a4.23,4.23,0,0,1-3.17,3.67c-1.47.21-2.42-1.07-2.18-2.81a4.36,4.36,0,0,1,3.06-3.58ZM51.42,68.6a4,4,0,0,1,4,3.91,3.78,3.78,0,0,1-3.76,3.78h-.1a4,4,0,0,1-4-3.87,3.76,3.76,0,0,1,3.7-3.82ZM35.11,85.89a4.18,4.18,0,0,1,3.76,3.6,2.64,2.64,0,0,1-2.38,2.88,3,3,0,0,1-.73,0,4.28,4.28,0,0,1-3.68-3.49,2.65,2.65,0,0,1,2.29-3,2.62,2.62,0,0,1,.74,0Zm-24.91-36c1.29-.07,2.33,1.4,2.28,3.32S11.34,56.69,10,56.68s-2.19-1.49-2.16-3.27S9,50,10.2,49.92Zm7.67,12.86c1.52.07,2.83,1.7,2.9,3.68s-1.1,3.44-2.6,3.32-2.67-1.73-2.77-3.63,1-3.38,2.47-3.38ZM87.38,52.62a3.85,3.85,0,1,1-3.58,3.59A3.86,3.86,0,0,1,87.38,52.62ZM78.29,22.79a4.14,4.14,0,0,1,3.82,3.55,3,3,0,0,1-2.84,3.18,2.9,2.9,0,0,1-.51,0,4,4,0,0,1-3.84-3.61,3,3,0,0,1,2.83-3.13,3.21,3.21,0,0,1,.54,0ZM70.48,68a3.73,3.73,0,0,1,3.81,3.66.43.43,0,0,1,0,.16,4,4,0,0,1-3.91,3.87A3.73,3.73,0,0,1,66.52,72a.71.71,0,0,1,0-.14,4,4,0,0,1,4-3.93Zm6,15.19A3.13,3.13,0,0,1,80,85.93a2.64,2.64,0,0,1,0,.49A4.1,4.1,0,0,1,76.15,90a3.14,3.14,0,0,1-3.48-2.76,3.1,3.1,0,0,1,0-.43,4,4,0,0,1,3.86-3.65Zm-53-38.47c3.58-.21,6.47,3,6.34,7.28s-3.16,7.79-6.78,7.79c-3.41,0-6-3.35-5.9-7.38s3-7.42,6.34-7.69Z"/></g></svg>